<svg width="546.000000" height="463.023682" viewBox="0 0 546 463.024" fill="none" xmlns="http://www.w3.org/2000/svg" xmlns:xlink="http://www.w3.org/1999/xlink">
	<desc>
			Created with Pixso.
	</desc>
	<defs>
		<clipPath id="clip8_427">
			<rect id="undraw_exploring_re_grb8" width="546.000000" height="463.023651" fill="white"/>
		</clipPath>
	</defs>
	<g clip-path="url(#clip8_427)">
		<path id="path" d="M318.655 54.5195C314.525 47.9532 309.631 40.9424 301.967 38.7983C293.092 36.3153 283.975 41.2478 276.241 46.1152C253.096 60.6831 230.857 76.4344 209.526 93.369L209.549 93.6239C226.144 92.5238 242.738 91.4237 259.333 90.3236C271.323 89.5287 283.724 88.6243 294.32 83.1718C298.341 81.1028 302.26 78.339 306.816 78.1464C312.476 77.9071 317.412 81.7075 321.291 85.678C344.234 109.165 350.874 145.082 376.614 165.717C360.358 127.176 341.038 90.1099 318.655 54.5195Z" fill-rule="nonzero" fill="#D6D6D6"/>
		<path id="path" d="M459.687 253.731C457.149 250.651 456.113 249.93 453.61 246.821C433.232 221.484 414.078 195.292 396.149 168.244C383.97 149.874 372.396 131.151 361.425 112.075C356.202 103.006 351.123 93.8665 346.186 84.6553C342.355 77.5133 338.61 70.3285 334.951 63.101C333.904 61.0366 332.887 58.9628 331.875 56.8843C329.491 51.9963 327.151 47.0846 324.638 42.2631C321.775 36.7677 318.29 31.0066 313.032 27.3146C310.59 25.5292 307.841 24.5121 304.783 24.2632C300.504 23.9974 296.554 25.6963 292.842 27.5519C265.556 41.3411 240.36 58.0439 217.254 77.6604C194.117 97.1945 173.647 119.038 155.844 143.192C155.301 143.937 154.017 143.225 154.565 142.475C156.722 139.543 158.922 136.641 161.165 133.772C175.109 115.944 190.565 99.4235 207.532 84.2094C224.499 68.9954 242.717 55.3217 262.186 43.1885C268.737 39.1073 275.411 35.2175 282.209 31.519C285.635 29.6541 289.075 27.8129 292.575 26.0854C296.006 24.3914 299.649 22.8679 303.569 22.811C316.908 22.6117 323.814 37.1332 328.558 46.9043C330.049 49.9794 331.558 53.045 333.085 56.1012C338.855 67.7041 344.848 79.201 351.063 90.592C354.899 97.625 358.819 104.617 362.822 111.568C375.282 133.212 388.525 154.418 402.551 175.187C421.133 202.697 439.565 226.999 460.733 252.725C461.316 253.437 460.274 254.452 459.687 253.731Z" fill-rule="nonzero" fill="#C2C1C1"/>
		<path id="path" d="M215.936 70.4899C215.161 69.6594 214.391 68.8289 213.611 67.9984C207.46 61.459 200.86 54.9955 192.413 51.2466C188.338 49.3805 184.043 48.4235 179.529 48.3755C174.918 48.3896 170.411 49.5524 166.151 51.1801C164.137 51.9536 162.167 52.8315 160.227 53.7665C158.011 54.8389 155.834 55.9827 153.667 57.1357C149.599 59.2998 145.584 61.5587 141.622 63.9125C133.738 68.5963 126.101 73.6377 118.711 79.0366C114.88 81.8365 111.128 84.7281 107.456 87.7115C104.04 90.4829 100.693 93.3287 97.4148 96.2488C96.7139 96.8705 95.6673 95.8645 96.3682 95.2428C97.2321 94.4692 98.1059 93.7004 98.9797 92.9412C101.448 90.7961 103.956 88.6923 106.503 86.6295C111.148 82.8616 115.914 79.2391 120.799 75.7622C128.397 70.3522 136.255 65.3092 144.376 60.6333C148.434 58.2985 152.548 56.0618 156.717 53.9231C157.976 53.2776 159.25 52.6465 160.538 52.0486C163.466 50.6287 166.494 49.4438 169.621 48.4941C174.096 47.1025 178.669 46.6707 183.34 47.1986C187.838 47.8275 192.057 49.2306 195.997 51.4078C204.291 55.864 210.723 62.7545 216.982 69.479C217.614 70.1625 216.573 71.1732 215.936 70.4899Z" fill-rule="nonzero" fill="#C2C1C1"/>
		<path id="path" d="M385.863 138.255L405.735 131.268L415.602 127.799C418.816 126.669 422.022 125.383 425.344 124.573C428.294 123.763 431.233 123.799 434.161 124.682C436.742 125.6 439.034 126.966 441.038 128.78C443.067 130.576 444.947 132.506 446.678 134.57C448.827 137.052 450.943 139.56 453.069 142.059C461.843 152.375 470.56 162.735 479.22 173.141C487.879 183.546 496.481 193.995 505.024 204.488C513.589 215.007 522.094 225.57 530.541 236.177C531.576 237.477 532.609 238.777 533.642 240.077C534.213 240.796 535.5 240.088 534.921 239.359C526.412 228.645 517.844 217.975 509.216 207.349C500.568 196.698 491.859 186.092 483.091 175.531C474.323 164.97 465.495 154.455 456.608 143.986C454.395 141.378 452.177 138.772 449.956 136.17C448.082 133.974 446.229 131.756 444.174 129.712C440.402 125.962 435.689 122.647 430.047 122.557C426.73 122.505 423.52 123.516 420.438 124.588C417.116 125.744 413.802 126.921 410.484 128.087L390.472 135.124L385.469 136.883C384.581 137.195 384.965 138.571 385.863 138.255Z" fill-rule="nonzero" fill="#C2C1C1"/>
		<path id="path" d="M189.798 59.475C179.699 54.4855 166.766 55.4626 157.486 61.6964C175.202 64.6346 192.68 68.5562 209.919 73.4607C202.767 69.4313 197.172 63.118 189.798 59.475Z" fill-rule="nonzero" fill="#D6D6D6"/>
		<path id="path" d="M157.386 61.6793L155.442 63.1985C156.1 62.6667 156.784 62.1682 157.486 61.6965C157.453 61.691 157.42 61.6848 157.386 61.6793Z" fill-rule="nonzero" fill="#F2F2F2"/>
		<path id="path" d="M440.289 138.325C438.333 136.036 436.218 133.639 433.292 132.709L430.56 132.813C440.958 150.475 453.106 166.944 467.006 182.22C480.905 197.495 496.268 211.261 513.094 223.518C488.826 195.121 464.557 166.723 440.289 138.325Z" fill-rule="nonzero" fill="#D6D6D6"/>
		<path id="path" d="M315.221 325.334C315.147 325.334 315.075 325.322 315.006 325.297L262.367 306.708C261.98 306.568 261.857 306.312 262 305.939C262.142 305.565 262.408 305.446 262.798 305.581L315.437 324.17C315.764 324.285 315.897 324.508 315.836 324.838C315.775 325.168 315.57 325.334 315.221 325.334Z" fill-rule="nonzero" fill="#FFFFFF"/>
		<path id="path" d="M219.015 290.502C218.941 290.502 218.869 290.49 218.8 290.465L166.161 271.876C165.774 271.736 165.651 271.48 165.794 271.107C165.937 270.733 166.203 270.614 166.592 270.749L219.231 289.338C219.558 289.453 219.691 289.676 219.63 290.006C219.569 290.337 219.364 290.502 219.015 290.502Z" fill-rule="nonzero" fill="#000000"/>
		<path id="path" d="M120.935 255.67C120.861 255.67 120.789 255.658 120.72 255.633L68.081 237.044C67.6902 236.906 67.5665 236.649 67.7101 236.273C67.8536 235.898 68.1208 235.779 68.5117 235.917L121.151 254.506C121.478 254.621 121.611 254.844 121.55 255.175C121.489 255.505 121.284 255.67 120.935 255.67Z" fill-rule="nonzero" fill="#FFFFFF"/>
		<path id="path" d="M111.073 165.382C108.878 164.91 106.656 164.538 104.461 164.278L104.142 164.24C89.5725 162.573 77.2728 168.419 75.5321 177.839L75.2228 179.544C75.0294 180.622 74.8211 181.781 74.5732 183.063C74.4533 183.696 75.1148 184.343 76.077 184.55L426.473 259.848C451.216 264.99 475.879 270.071 499.774 274.948C504.25 275.92 508.771 276.623 513.337 277.056C520.164 277.612 525.161 276.88 528.618 274.819C532.914 272.265 533.995 268.119 534.878 263.362C536.656 253.755 538.549 243.668 540.436 233.611C542.099 224.748 543.757 215.909 545.329 207.443C546.252 202.417 546.754 197.913 543.531 193.696C540.035 189.133 532.548 185.592 521.277 183.169C521.141 183.14 521.005 183.111 520.867 183.082C485.513 175.631 447.389 181.551 426.002 197.814C423.539 199.687 421.17 201.749 418.879 203.744C415.486 206.838 411.883 209.687 408.07 212.291C405.964 213.685 403.743 214.884 401.407 215.886C401.247 215.961 401.065 216.039 400.876 216.11C400.435 216.301 399.98 216.478 399.542 216.629C396.982 217.578 394.346 218.258 391.636 218.669L391.366 218.708C391.162 218.742 390.943 218.772 390.725 218.796C389.174 218.996 387.617 219.114 386.053 219.15C379.298 219.335 371.943 218.147 364.193 215.617C357.015 213.248 350.231 210.094 343.841 206.158C337.085 202.006 330.948 197.32 325.012 192.788C322.405 190.797 319.708 188.739 316.998 186.755C316.488 186.381 315.987 186.016 315.477 185.649C312.158 183.265 309.12 181.232 306.187 179.434C298.953 174.975 291.218 171.565 282.983 169.204C274.322 166.784 266.347 166.124 259.287 167.237C257.323 167.546 255.396 168 253.507 168.6C244.809 171.361 238.566 176.852 232.529 182.163C225.019 188.768 217.253 195.599 204.66 197.299C190.127 199.265 171.028 193.047 157.998 186.57C153.902 184.533 149.849 182.333 145.93 180.204C144.347 179.344 142.762 178.487 141.175 177.633C138.055 175.961 135.491 174.641 133.105 173.48L132.35 173.111C131.93 172.909 131.509 172.706 131.079 172.507C128.237 171.163 125.566 170.012 122.911 168.987L122.283 168.742C121.021 168.271 119.835 167.849 118.667 167.458L118.201 167.303C115.861 166.538 113.485 165.898 111.073 165.382Z" fill-rule="nonzero" fill="#D6D6D6"/>
		<path id="path" d="M529.133 278.479C529.09 278.48 529.047 278.475 529.004 278.467L66.7154 184.656C66.3118 184.571 66.1527 184.334 66.238 183.945C66.3234 183.557 66.5685 183.402 66.9735 183.481L529.262 277.291C529.629 277.366 529.793 277.582 529.754 277.941C529.716 278.3 529.509 278.479 529.133 278.479Z" fill-rule="nonzero" fill="#000000"/>
		<ellipse id="circle" cx="433.239136" cy="30.628052" rx="31.860413" ry="30.628023" fill="#FF6584"/>
		<path id="path" d="M490.735 7.12866C475.294 5.12231 457.666 13.1454 453.664 27.6216C453.159 26.3346 452.46 25.1547 451.565 24.0817C450.67 23.0085 449.625 22.0955 448.428 21.3423C447.231 20.589 445.942 20.0328 444.561 19.6737C443.18 19.3147 441.775 19.1704 440.347 19.2408C438.918 19.3113 437.536 19.5931 436.2 20.0862C434.865 20.5792 433.642 21.2594 432.532 22.1263C431.421 22.9934 430.478 24.0046 429.703 25.1602C428.927 26.3156 428.357 27.5581 427.992 28.8879L429.76 30.1051C446.304 33.5446 463.04 35.2274 479.967 35.1538C496.894 35.0803 513.614 33.252 530.125 29.6688C519.385 18.8175 506.176 9.13501 490.735 7.12866Z" fill-rule="nonzero" fill="#E0E0E0"/>
		<path id="path" d="M424.515 47.9661C409.074 45.9597 391.446 53.9828 387.444 68.459C386.94 67.172 386.24 65.9921 385.345 64.9189C384.451 63.8459 383.405 62.9329 382.208 62.1796C381.011 61.4264 379.722 60.8701 378.341 60.5111C376.96 60.152 375.556 60.0077 374.127 60.0781C372.698 60.1486 371.316 60.4304 369.981 60.9235C368.645 61.4166 367.422 62.0967 366.312 62.9637C365.202 63.8308 364.259 64.842 363.483 65.9974C362.707 67.153 362.137 68.3955 361.772 69.7253L363.54 70.9425C380.085 74.3818 396.821 76.0648 413.748 75.9912C430.675 75.9177 447.394 74.0894 463.906 70.5062C453.165 59.6549 439.956 49.9724 424.515 47.9661Z" fill-rule="nonzero" fill="#E0E0E0"/>
		<path id="path" d="M452.225 293.719C451.589 293.104 451.118 292.388 450.812 291.572C450.506 290.756 450.394 289.917 450.475 289.053C450.557 288.189 450.825 287.383 451.28 286.633C451.734 285.884 452.332 285.262 453.073 284.768L443.365 238.413L454.086 241.722L461.857 286.559C462.242 287.177 462.501 287.842 462.634 288.552C462.766 289.262 462.762 289.971 462.623 290.68C462.484 291.389 462.219 292.051 461.827 292.666C461.435 293.281 460.943 293.81 460.349 294.251C459.755 294.692 459.1 295.018 458.382 295.228C457.664 295.438 456.931 295.518 456.182 295.469C455.433 295.42 454.718 295.244 454.036 294.943C453.355 294.641 452.751 294.233 452.225 293.719Z" fill-rule="nonzero" fill="#9E616A"/>
		<path id="path" d="M437.891 195.645L444.542 190.818C444.542 190.818 450.41 190.419 451.45 200.591C452.489 210.764 454.623 230.589 454.623 230.589L464.801 275.908L450.711 278.881L439.81 229.974L433.27 215.45L437.891 195.645Z" fill-rule="nonzero" fill="#2F2E41"/>
		<path id="polygon" d="M448.857 269.647L411.374 269.046L408.251 244.424L448.857 244.424L448.857 269.647Z" fill-rule="nonzero" fill="#9E616A"/>
		<path id="polygon" d="M414.205 420.284L405.552 420.283L401.436 388.198L414.207 388.198L414.205 420.284Z" fill-rule="nonzero" fill="#9E616A"/>
		<path id="polygon" d="M469.333 408.761L460.68 408.703L456.797 376.59L468.051 379.072L469.333 408.761Z" fill-rule="nonzero" fill="#9E616A"/>
		<path id="polygon" d="M442.269 223.219L444.229 228.119L443.837 233.02L405.464 245.797L407.368 224.35L411.682 219.449L442.269 223.219Z" fill-rule="nonzero" fill="#FFB6B6"/>
		<ellipse id="circle" cx="425.806580" cy="165.943604" rx="13.705196" ry="13.175068" fill="#9E616A"/>
		<path id="path" d="M418.076 436.078L411.936 436.078L410.84 430.506L408.033 436.078L391.748 436.078C390.947 436.078 390.224 435.85 389.578 435.394C388.933 434.938 388.491 434.342 388.253 433.606C388.014 432.871 388.026 432.14 388.287 431.412C388.548 430.684 389.009 430.101 389.668 429.663L402.673 421.029L402.673 415.395L416.351 416.18L418.076 436.078Z" fill-rule="nonzero" fill="#2F2E41"/>
		<path id="path" d="M473.872 424.587L467.732 424.546L466.677 418.966L463.83 424.52L447.545 424.41C446.744 424.405 446.022 424.172 445.38 423.711C444.738 423.25 444.301 422.651 444.068 421.915C443.835 421.178 443.851 420.446 444.118 419.72C444.385 418.994 444.849 418.414 445.511 417.981L458.579 409.435L458.62 403.801L472.293 404.678L473.872 424.587Z" fill-rule="nonzero" fill="#2F2E41"/>
		<path id="path" d="M472.025 385.925L465.724 348.919L458.228 297.873C463.718 288.071 451.356 257.636 451.356 257.636L449.611 257.716L410.116 264.879C402.038 286.059 399.37 296.486 399.813 319.041L401.405 400.121L400.905 400.121C400.491 400.121 400.093 400.197 399.71 400.35C399.327 400.502 398.99 400.719 398.697 401C398.404 401.282 398.178 401.607 398.02 401.975C397.861 402.343 397.782 402.726 397.782 403.124C397.782 403.522 397.861 403.905 398.02 404.273C398.178 404.641 398.404 404.966 398.697 405.247C398.99 405.529 399.327 405.746 399.71 405.898C400.093 406.05 400.491 406.126 400.905 406.127L416.523 406.127C416.937 406.126 417.336 406.05 417.718 405.898C418.101 405.746 418.439 405.529 418.732 405.247C419.025 404.966 419.25 404.641 419.409 404.273C419.567 403.905 419.647 403.522 419.647 403.124C419.647 402.726 419.567 402.343 419.409 401.975C419.25 401.607 419.025 401.282 418.732 401C418.439 400.719 418.101 400.502 417.718 400.35C417.336 400.197 416.937 400.121 416.523 400.121L416.12 400.121L430.456 303.579L442.61 344.115L456.354 385.553C451.356 384.352 452.132 387.135 452.132 388.711C452.132 389.109 452.211 389.492 452.37 389.86C452.528 390.228 452.754 390.552 453.047 390.834C453.34 391.115 453.677 391.333 454.06 391.485C454.443 391.637 454.841 391.713 455.255 391.713L470.873 391.713C471.622 391.714 472.286 391.485 472.864 391.027C473.441 390.568 473.801 389.985 473.941 389.277C474.082 388.57 473.972 387.901 473.611 387.269C473.251 386.638 472.722 386.19 472.025 385.925Z" fill-rule="nonzero" fill="#2F2E41"/>
		<path id="path" d="M454.431 259.212L453.182 247.201C453.048 246.699 452.774 246.282 452.359 245.95C451.944 245.619 451.468 245.436 450.929 245.403C450.409 239.681 448.219 214.998 448.088 213.921L447.087 193.422C447.049 192.653 446.75 191.994 446.189 191.445C445.628 190.895 444.948 190.596 444.149 190.545L438.888 190.215C438.709 190.209 438.619 190.12 438.619 189.947C438.619 189.384 438.507 188.841 438.283 188.32C438.058 187.799 437.738 187.339 437.324 186.94C436.909 186.542 436.43 186.234 435.888 186.018C435.346 185.803 434.782 185.695 434.195 185.695L418.621 185.695C418.116 185.695 417.628 185.781 417.156 185.952C416.685 186.124 416.26 186.37 415.881 186.691C415.503 187.012 415.196 187.387 414.961 187.816C414.725 188.244 414.576 188.699 414.513 189.18C414.496 189.343 414.402 189.422 414.233 189.418C413.348 189.401 412.486 189.531 411.65 189.811C410.814 190.09 410.054 190.5 409.371 191.042C408.689 191.583 408.125 192.221 407.68 192.957C407.236 193.693 406.938 194.48 406.787 195.318C404.658 207.228 400.391 234.258 402.501 249.285C403.235 254.516 401.652 250.373 401.374 254.75C401.316 255.639 401.594 256.418 402.208 257.085C400.923 257.445 400.424 258.78 400.754 260.038L400.48 259.973C400.649 260.616 401.029 261.108 401.622 261.448C402.214 261.788 402.845 261.877 403.514 261.715L451.369 250.118C452.708 249.793 454.768 260.499 454.431 259.212Z" fill-rule="nonzero" fill="#2F2E41"/>
		<path id="path" d="M401.759 293.719C402.395 293.104 402.866 292.388 403.172 291.572C403.478 290.756 403.59 289.917 403.509 289.053C403.427 288.189 403.159 287.383 402.704 286.633C402.25 285.884 401.652 285.262 400.911 284.768L410.619 238.413L399.898 241.722L392.127 286.559C391.741 287.177 391.482 287.842 391.35 288.552C391.218 289.262 391.222 289.971 391.361 290.68C391.5 291.389 391.765 292.051 392.157 292.666C392.549 293.281 393.041 293.81 393.635 294.251C394.228 294.692 394.884 295.018 395.602 295.228C396.32 295.438 397.053 295.518 397.802 295.469C398.551 295.42 399.266 295.244 399.948 294.943C400.629 294.641 401.233 294.233 401.759 293.719Z" fill-rule="nonzero" fill="#9E616A"/>
		<path id="path" d="M416.093 195.645L409.442 190.818C409.442 190.818 403.574 190.419 402.534 200.591C401.495 210.764 399.361 230.589 399.361 230.589L389.183 275.908L403.273 278.881L414.174 229.974L420.715 215.45L416.093 195.645Z" fill-rule="nonzero" fill="#2F2E41"/>
		<path id="path" d="M440.483 154.228C443.036 154.959 445.418 152.906 447.195 150.961L446.564 151.681C450.744 154.511 453.244 159.122 454.866 163.789C456.488 168.451 457.392 173.334 459.223 177.929C461.053 182.519 464.008 186.96 468.531 189.25C474.59 192.317 482.015 190.922 488.459 188.709C488.545 188.679 488.625 188.653 488.711 188.622C486.074 183.887 484.507 178.844 484.011 173.494C486.699 178.538 490.421 182.735 495.177 186.085C499.395 184.242 503.431 182.084 507.285 179.612C509.774 178.012 512.397 175.943 512.686 173.077C512.98 170.231 510.77 167.633 508.163 166.264C505.556 164.895 502.558 164.432 499.711 163.609C496.868 162.791 493.967 161.448 492.474 158.978C489.032 153.297 494.824 145.285 491.13 139.749C489.31 137.026 485.778 135.936 482.502 135.179C477.496 134.028 472.432 133.207 467.311 132.714C462.82 132.282 458.179 132.123 453.908 133.512C449.636 134.901 445.761 138.128 444.846 142.378C442.351 143.639 439.712 145.033 438.374 147.426C437.036 149.813 437.78 153.457 440.483 154.228Z" fill-rule="nonzero" fill="#2F2E41"/>
		<path id="path" d="M444.294 153.271C446.739 156.215 448.07 159.4 448.07 161.306C453.149 170.23 445.886 177.895 436.603 182.777C432.795 184.791 428.745 185.47 424.452 184.814L424.064 183.22L423.538 184.656C423.538 184.656 417.494 203.845 415.5 204.971C416.257 201.556 417.123 185.744 417.544 182.411C418.128 177.874 416.095 171.121 414.629 167.014C413.714 164.465 413.253 161.843 413.248 159.147L413.248 159.03L411.821 163.438L406.624 161.306C407.59 155.975 406.624 149.922 418.215 150.447C424.485 146.302 430.006 145.671 434.541 146.847C435.126 145.977 438.501 147.606 439.477 147.148L444.294 153.271Z" fill-rule="nonzero" fill="#2F2E41"/>
		<path id="path" d="M457.272 246.961C457.162 247.906 456.895 248.809 456.471 249.668C456.047 250.527 455.489 251.297 454.797 251.977C454.106 252.657 453.318 253.21 452.434 253.637C451.55 254.064 450.618 254.341 449.638 254.468L421.419 258.144C420.253 258.295 419.1 258.225 417.962 257.936C416.824 257.646 415.787 257.159 414.851 256.473C413.914 255.787 413.15 254.956 412.557 253.978C411.965 253 411.589 251.95 411.43 250.829L407.363 221.919C407.091 219.985 407.466 218.175 408.488 216.49L408.294 215.084C407.478 214.798 406.797 214.33 406.251 213.679C405.706 213.029 405.375 212.29 405.259 211.462C405.142 210.634 405.256 209.836 405.602 209.07C405.947 208.303 406.474 207.678 407.182 207.193L410.668 191.669C410.621 191.333 410.646 191.002 410.745 190.676C410.843 190.35 411.006 190.057 411.233 189.798C411.461 189.538 411.733 189.334 412.05 189.185C412.367 189.036 412.702 188.955 413.055 188.942C413.711 188.935 414.286 189.14 414.779 189.557C415.272 189.974 415.557 190.495 415.635 191.122L415.953 193.404C416.166 194.913 416.659 196.331 417.433 197.659C418.207 198.987 419.207 200.132 420.433 201.094C421.66 202.057 423.027 202.769 424.535 203.232C426.044 203.695 427.588 203.876 429.167 203.774C430.747 203.673 432.252 203.296 433.683 202.645C435.114 201.993 436.371 201.112 437.453 200.001C438.536 198.891 439.368 197.628 439.951 196.213C440.534 194.797 440.827 193.329 440.829 191.807C440.829 191.262 440.792 190.72 440.717 190.18L440.405 187.933C440.299 187.286 440.437 186.691 440.82 186.149C441.203 185.606 441.726 185.262 442.391 185.117C442.728 185.055 443.064 185.06 443.399 185.132C443.734 185.203 444.041 185.336 444.319 185.529C444.598 185.722 444.825 185.96 445.001 186.243C445.177 186.527 445.288 186.832 445.333 187.159L447.351 201.452C447.906 201.415 448.451 201.472 448.985 201.621C449.519 201.771 450.009 202.005 450.456 202.323C450.904 202.641 451.28 203.023 451.585 203.47C451.891 203.917 452.106 204.401 452.232 204.922C452.358 205.443 452.387 205.968 452.318 206.499C452.249 207.03 452.086 207.532 451.831 208.007C451.576 208.482 451.243 208.9 450.832 209.261C450.422 209.622 449.959 209.903 449.444 210.106C451.581 211.529 452.824 213.479 453.174 215.955L457.247 244.872C457.346 245.567 457.354 246.264 457.272 246.961Z" fill-rule="nonzero" fill="#6C63FF"/>
		<path id="path" d="M407.892 215.72C407.857 215.474 407.919 215.252 408.075 215.054C408.232 214.856 408.438 214.74 408.695 214.707L447.156 209.039C447.413 209.006 447.644 209.064 447.85 209.215C448.055 209.366 448.176 209.564 448.21 209.811C448.245 210.057 448.184 210.28 448.027 210.478C447.87 210.675 447.664 210.791 447.407 210.824L408.946 216.492C408.69 216.525 408.459 216.466 408.253 216.316C408.047 216.165 407.927 215.967 407.892 215.72Z" fill-rule="nonzero" fill="#3F3D56"/>
		<path id="path" d="M412.387 230.896L411.115 221.866C411.066 221.518 411.089 221.174 411.182 220.834C411.275 220.494 411.433 220.185 411.654 219.905C411.876 219.625 412.145 219.397 412.46 219.22C412.776 219.043 413.116 218.932 413.478 218.884L450.212 214.367C450.574 214.32 450.932 214.341 451.286 214.431C451.639 214.521 451.961 214.672 452.252 214.885C452.543 215.098 452.78 215.356 452.964 215.66C453.148 215.964 453.265 216.29 453.314 216.638L454.585 225.668C454.634 226.016 454.612 226.36 454.519 226.7C454.425 227.04 454.268 227.35 454.046 227.629C453.825 227.909 453.556 228.137 453.24 228.314C452.924 228.491 452.585 228.603 452.223 228.65L437.55 230.591C437.58 230.687 437.605 230.785 437.623 230.884L438.922 240.109L451.303 238.498C451.716 238.444 451.95 238.615 452.006 239.012C452.062 239.409 451.884 239.634 451.471 239.688L439.089 241.299L433.518 242.024L421.755 243.554C421.343 243.608 421.108 243.436 421.053 243.039C420.997 242.643 421.175 242.417 421.588 242.364L433.35 240.833L432.052 231.609C432.042 231.509 432.039 231.408 432.041 231.307L415.489 233.167C415.126 233.214 414.768 233.193 414.415 233.103C414.061 233.014 413.739 232.862 413.448 232.649C413.158 232.436 412.92 232.178 412.736 231.874C412.552 231.571 412.436 231.245 412.387 230.896Z" fill-rule="nonzero" fill="#3F3D56"/>
		<path id="path" d="M268.002 463.199C267.842 463.199 267.703 463.148 267.584 463.045L0.206532 231.358C-0.102978 231.089 -0.118336 230.807 0.160461 230.509C0.439262 230.212 0.733421 230.197 1.04294 230.465L268.421 462.152C268.633 462.336 268.688 462.557 268.586 462.814C268.483 463.071 268.288 463.199 268.002 463.199Z" fill-rule="nonzero" fill="#000000"/>
		<path id="path" d="M407.969 229.161C407.997 228.793 407.876 228.478 407.606 228.216C407.336 227.954 407.009 227.835 406.626 227.858C406.559 227.861 406.492 227.869 406.426 227.882L398.517 229.6C398.143 229.687 397.864 229.893 397.68 230.218C397.564 230.223 397.449 230.239 397.337 230.266C396.818 230.378 396.416 230.65 396.132 231.082C395.848 231.514 395.765 231.979 395.882 232.478C396 232.976 396.284 233.361 396.734 233.633C397.184 233.905 397.668 233.984 398.186 233.87C398.473 233.806 398.731 233.686 398.961 233.509L401.641 240.764C401.95 241.289 402.41 241.483 403.021 241.347L408.163 240.229C408.765 240.094 409.092 239.729 409.144 239.136L407.969 229.161ZM398.068 233.353C397.697 233.434 397.352 233.378 397.03 233.184C396.709 232.99 396.506 232.715 396.421 232.359C396.337 232.004 396.396 231.671 396.597 231.362C396.799 231.053 397.085 230.858 397.455 230.777C397.48 230.771 397.505 230.777 397.53 230.771C397.528 230.994 397.585 231.202 397.699 231.395L398.68 233.041C398.506 233.2 398.302 233.304 398.068 233.353Z" fill-rule="nonzero" fill="#CCCCCC"/>
		<path id="path" d="M406.626 227.858C406.701 228.819 404.989 229.924 402.697 230.362C400.591 230.777 398.705 230.489 398.174 229.732C398.281 229.671 398.396 229.627 398.517 229.6L406.426 227.882C406.492 227.869 406.559 227.861 406.626 227.858Z" fill-rule="nonzero" fill="#E6E6E6"/>
		<path id="path" d="M402.493 247.048L400.197 242.456C398.852 239.766 401.314 236.904 405.687 236.076L411.074 235.203L413.328 250.338L412.861 250.426C408.489 251.254 403.838 249.738 402.493 247.048Z" fill-rule="nonzero" fill="#6C63FF"/>
		<g opacity="0.200000">
			<path id="path" d="M457.272 246.962C457.161 247.907 456.894 248.809 456.471 249.668C456.047 250.527 455.489 251.297 454.797 251.977C454.106 252.657 453.318 253.21 452.434 253.637C451.55 254.064 450.618 254.341 449.638 254.469L421.419 258.144C419.708 258.366 418.069 258.129 416.502 257.432C414.935 256.734 413.686 255.687 412.755 254.288C414.436 252.334 416.593 251.285 419.227 251.141C421.651 251.021 423.999 251.796 426.373 252.228C429.243 252.748 432.119 252.779 435 252.319C437.881 251.86 440.593 250.939 443.134 249.556C445.34 248.325 447.326 246.751 449.75 245.875C452.174 245.004 455.304 245.034 457.059 246.733C457.135 246.805 457.206 246.881 457.272 246.962Z" fill-rule="nonzero" fill="#000000"/>
		</g>
	</g>
</svg>
