<svg width="16.000000" height="16.000000" viewBox="0 0 16 16" fill="none" xmlns="http://www.w3.org/2000/svg" xmlns:xlink="http://www.w3.org/1999/xlink">
	<desc>
			Created with Pixso.
	</desc>
	<defs>
		<clipPath id="clip5_377">
			<rect id="联系人" width="16.000000" height="16.000000" fill="currentColor"/>
		</clipPath>
	</defs>
	<g clip-path="url(#clip5_377)">
		<path id="path" d="M13 1L4 1C3.93451 1 3.86914 1.00317 3.80396 1.00964C3.73877 1.01599 3.67407 1.02563 3.60983 1.03845C3.54556 1.05115 3.48212 1.06714 3.41943 1.08606C3.35675 1.1051 3.29514 1.1272 3.23462 1.15222C3.1741 1.17737 3.11496 1.20532 3.05722 1.23621C2.99945 1.26709 2.94333 1.30066 2.88885 1.33704C2.83441 1.37341 2.78186 1.41248 2.7312 1.45398C2.68057 1.49548 2.63211 1.53943 2.58578 1.58582C2.53946 1.63208 2.49554 1.68054 2.45398 1.7312C2.41241 1.78186 2.37344 1.83435 2.33707 1.88892C2.30066 1.94336 2.26703 1.99939 2.23615 2.05725C2.20529 2.11499 2.17731 2.17407 2.15225 2.23462C2.12717 2.29517 2.10513 2.35669 2.08612 2.41943C2.06711 2.48206 2.05121 2.54553 2.03842 2.60986C2.02567 2.67407 2.01605 2.73877 2.00964 2.80396C2.0032 2.86914 2 2.93445 2 3L2 4L1.5 4C1.46716 4 1.43466 4.00317 1.40247 4.00964C1.37027 4.01599 1.33899 4.02551 1.30865 4.03809C1.27832 4.05066 1.24951 4.06604 1.22223 4.08423C1.19492 4.10254 1.16965 4.12329 1.14645 4.14648C1.12323 4.16968 1.10251 4.19495 1.08426 4.22217C1.06604 4.24951 1.05063 4.27832 1.03806 4.30872C1.02548 4.33899 1.01602 4.37024 1.00961 4.40247C1.0032 4.43469 1 4.46716 1 4.5C1 4.53284 1.0032 4.56531 1.00961 4.59753C1.01602 4.62976 1.02548 4.66101 1.03806 4.69128C1.05063 4.72168 1.06604 4.75049 1.08426 4.77783C1.10251 4.80505 1.12323 4.83032 1.14645 4.85352C1.16965 4.87671 1.19492 4.89746 1.22223 4.91577C1.24951 4.93396 1.27832 4.94934 1.30865 4.96191C1.33899 4.97449 1.37027 4.98401 1.40247 4.99036C1.43466 4.99683 1.46716 5 1.5 5L2 5L2 7.5L1.5 7.5C1.46716 7.5 1.43466 7.50317 1.40247 7.50964C1.37027 7.51599 1.33899 7.52551 1.30865 7.53809C1.27832 7.55066 1.24951 7.56604 1.22223 7.58423C1.19492 7.60254 1.16965 7.62329 1.14645 7.64648C1.12323 7.66968 1.10251 7.69495 1.08426 7.72217C1.06604 7.74951 1.05063 7.77832 1.03806 7.80872C1.02548 7.83899 1.01602 7.87024 1.00961 7.90247C1.0032 7.93469 1 7.96716 1 8C1 8.03284 1.0032 8.06531 1.00961 8.09753C1.01602 8.12976 1.02548 8.16101 1.03806 8.19128C1.05063 8.22168 1.06604 8.25049 1.08426 8.27783C1.10251 8.30505 1.12323 8.33032 1.14645 8.35352C1.16965 8.37671 1.19492 8.39746 1.22223 8.41577C1.24951 8.43396 1.27832 8.44934 1.30865 8.46191C1.33899 8.47449 1.37027 8.48401 1.40247 8.49036C1.43466 8.49683 1.46716 8.5 1.5 8.5L2 8.5L2 11L1.5 11C1.46716 11 1.43466 11.0032 1.40247 11.0096C1.37027 11.016 1.33899 11.0255 1.30865 11.0381C1.27832 11.0507 1.24951 11.066 1.22223 11.0842C1.19492 11.1025 1.16965 11.1233 1.14645 11.1465C1.12323 11.1697 1.10251 11.1949 1.08426 11.2222C1.06604 11.2495 1.05063 11.2783 1.03806 11.3087C1.02548 11.339 1.01602 11.3702 1.00961 11.4025C1.0032 11.4347 1 11.4672 1 11.5C1 11.5328 1.0032 11.5653 1.00961 11.5975C1.01602 11.6298 1.02548 11.661 1.03806 11.6913C1.05063 11.7217 1.06604 11.7505 1.08426 11.7778C1.10251 11.8051 1.12323 11.8303 1.14645 11.8535C1.16965 11.8767 1.19492 11.8975 1.22223 11.9158C1.24951 11.934 1.27832 11.9493 1.30865 11.9619C1.33899 11.9745 1.37027 11.984 1.40247 11.9904C1.43466 11.9968 1.46716 12 1.5 12L2 12L2 13C2 13.0656 2.0032 13.1309 2.00964 13.196C2.01605 13.2612 2.02567 13.3259 2.03842 13.3901C2.05121 13.4545 2.06711 13.5179 2.08612 13.5806C2.10513 13.6433 2.12717 13.7048 2.15225 13.7654C2.17731 13.8259 2.20529 13.885 2.23615 13.9427C2.26703 14.0006 2.30066 14.0566 2.33707 14.1111C2.37344 14.1656 2.41241 14.2181 2.45398 14.2688C2.49554 14.3195 2.53946 14.3679 2.58578 14.4142C2.63211 14.4606 2.68057 14.5045 2.7312 14.546C2.78186 14.5875 2.83438 14.6266 2.88885 14.663C2.94333 14.6993 2.99945 14.7329 3.05722 14.7638C3.11496 14.7947 3.1741 14.8226 3.23462 14.8478C3.29514 14.8728 3.35675 14.8949 3.41943 14.9139C3.48212 14.9329 3.54556 14.9487 3.60983 14.9615C3.67407 14.9744 3.73877 14.984 3.80396 14.9904C3.86914 14.9968 3.93451 15 4 15L13 15C13.0655 15 13.1309 14.9968 13.196 14.9904C13.2612 14.984 13.3259 14.9744 13.3902 14.9615C13.4544 14.9487 13.5179 14.9329 13.5806 14.9139C13.6432 14.8949 13.7048 14.8728 13.7654 14.8478C13.8259 14.8226 13.885 14.7947 13.9428 14.7638C14.0005 14.7329 14.0567 14.6993 14.1111 14.663C14.1656 14.6266 14.2181 14.5875 14.2688 14.546C14.3194 14.5045 14.3679 14.4606 14.4142 14.4142C14.4605 14.3679 14.5045 14.3195 14.546 14.2688C14.5876 14.2181 14.6266 14.1656 14.6629 14.1111C14.6993 14.0566 14.733 14.0006 14.7639 13.9427C14.7947 13.885 14.8227 13.8259 14.8477 13.7654C14.8728 13.7048 14.8949 13.6433 14.9139 13.5806C14.9329 13.5179 14.9488 13.4545 14.9616 13.3901C14.9743 13.3259 14.9839 13.2612 14.9904 13.196C14.9968 13.1309 15 13.0656 15 13L15 3C15 2.93445 14.9968 2.86914 14.9904 2.80396C14.9839 2.73877 14.9743 2.67407 14.9616 2.60986C14.9488 2.54553 14.9329 2.48206 14.9139 2.41943C14.8949 2.35669 14.8728 2.29517 14.8477 2.23462C14.8227 2.17407 14.7947 2.11499 14.7639 2.05725C14.733 1.99939 14.6993 1.94336 14.6629 1.88892C14.6266 1.83435 14.5876 1.78186 14.546 1.7312C14.5045 1.68054 14.4605 1.63208 14.4142 1.58582C14.3679 1.53943 14.3194 1.49548 14.2688 1.45398C14.2181 1.41248 14.1656 1.37341 14.1111 1.33704C14.0567 1.30066 14.0005 1.26709 13.9428 1.23621C13.885 1.20532 13.8259 1.17737 13.7654 1.15222C13.7048 1.1272 13.6432 1.1051 13.5806 1.08606C13.5179 1.06714 13.4544 1.05115 13.3902 1.03845C13.3259 1.02563 13.2612 1.01599 13.196 1.00964C13.1309 1.00317 13.0655 1 13 1ZM14 13C14 13.0657 13.9936 13.1307 13.9808 13.1951C13.968 13.2595 13.949 13.322 13.9239 13.3827C13.8987 13.4434 13.868 13.501 13.8315 13.5555C13.795 13.6101 13.7535 13.6606 13.7071 13.7072C13.6607 13.7535 13.6102 13.795 13.5556 13.8314C13.501 13.8679 13.4434 13.8988 13.3827 13.9238C13.322 13.949 13.2595 13.968 13.1951 13.9808C13.1307 13.9937 13.0657 14 13 14L4 14C3.93433 14 3.86932 13.9937 3.8049 13.9808C3.74051 13.968 3.67798 13.949 3.61731 13.9238C3.55664 13.8988 3.49902 13.8679 3.44443 13.8314C3.38983 13.795 3.33932 13.7535 3.29291 13.7072C3.24646 13.6606 3.20502 13.6101 3.16852 13.5555C3.13205 13.501 3.10126 13.4434 3.07611 13.3827C3.05099 13.322 3.03201 13.2595 3.01923 13.1951C3.00641 13.1307 3 13.0657 3 13L3 12L3.5 12C3.53284 12 3.56534 11.9968 3.59753 11.9904C3.62973 11.984 3.66101 11.9745 3.69135 11.9619C3.72168 11.9493 3.75049 11.934 3.77777 11.9158C3.80508 11.8975 3.83035 11.8767 3.85355 11.8535C3.87677 11.8303 3.89749 11.8051 3.91574 11.7778C3.93396 11.7505 3.94937 11.7217 3.96194 11.6913C3.97452 11.661 3.98398 11.6298 3.99039 11.5975C3.9968 11.5653 4 11.5328 4 11.5C4 11.4672 3.9968 11.4347 3.99039 11.4025C3.98398 11.3702 3.97452 11.339 3.96194 11.3087C3.94937 11.2783 3.93396 11.2495 3.91574 11.2222C3.89749 11.1949 3.87677 11.1697 3.85355 11.1465C3.83035 11.1233 3.80508 11.1025 3.77777 11.0842C3.75049 11.066 3.72168 11.0507 3.69135 11.0381C3.66101 11.0255 3.62973 11.016 3.59753 11.0096C3.56534 11.0032 3.53284 11 3.5 11L3 11L3 8.5L3.5 8.5C3.53284 8.5 3.56534 8.49683 3.59753 8.49036C3.62973 8.48401 3.66101 8.47449 3.69135 8.46191C3.72168 8.44934 3.75049 8.43396 3.77777 8.41577C3.80508 8.39746 3.83035 8.37671 3.85355 8.35352C3.87677 8.33032 3.89749 8.30505 3.91574 8.27783C3.93396 8.25049 3.94937 8.22168 3.96194 8.19128C3.97452 8.16101 3.98398 8.12976 3.99039 8.09753C3.9968 8.06531 4 8.03284 4 8C4 7.96716 3.9968 7.93469 3.99039 7.90247C3.98398 7.87024 3.97452 7.83899 3.96194 7.80872C3.94937 7.77832 3.93396 7.74951 3.91574 7.72217C3.89749 7.69495 3.87677 7.66968 3.85355 7.64648C3.83035 7.62329 3.80508 7.60254 3.77777 7.58423C3.75049 7.56604 3.72168 7.55066 3.69135 7.53809C3.66101 7.52551 3.62973 7.51599 3.59753 7.50964C3.56534 7.50317 3.53284 7.5 3.5 7.5L3 7.5L3 5L3.5 5C3.53284 5 3.56534 4.99683 3.59753 4.99036C3.62973 4.98401 3.66101 4.97449 3.69135 4.96191C3.72168 4.94934 3.75049 4.93396 3.77777 4.91577C3.80508 4.89746 3.83035 4.87671 3.85355 4.85352C3.87677 4.83032 3.89749 4.80505 3.91574 4.77783C3.93396 4.75049 3.94937 4.72168 3.96194 4.69128C3.97452 4.66101 3.98398 4.62976 3.99039 4.59753C3.9968 4.56531 4 4.53284 4 4.5C4 4.46716 3.9968 4.43469 3.99039 4.40247C3.98398 4.37024 3.97452 4.33899 3.96194 4.30872C3.94937 4.27832 3.93396 4.24951 3.91574 4.22217C3.89749 4.19495 3.87677 4.16968 3.85355 4.14648C3.83035 4.12329 3.80508 4.10254 3.77777 4.08423C3.75049 4.06604 3.72168 4.05066 3.69135 4.03809C3.66101 4.02551 3.62973 4.01599 3.59753 4.00964C3.56534 4.00317 3.53284 4 3.5 4L3 4L3 3C3 2.93433 3.00641 2.86926 3.01923 2.80493C3.03201 2.74048 3.05099 2.67798 3.07611 2.61731C3.10126 2.55664 3.13205 2.49902 3.16852 2.44446C3.20502 2.38989 3.24646 2.33936 3.29291 2.29285C3.33932 2.24646 3.38983 2.20496 3.44443 2.16858C3.49902 2.13208 3.55664 2.1012 3.61731 2.07617C3.67798 2.05103 3.74051 2.03198 3.8049 2.01917C3.86932 2.00635 3.93433 2 4 2L13 2C13.0657 2 13.1307 2.00635 13.1951 2.01917C13.2595 2.03198 13.322 2.05103 13.3827 2.07617C13.4434 2.1012 13.501 2.13208 13.5556 2.16858C13.6102 2.20496 13.6607 2.24646 13.7071 2.29285C13.7535 2.33936 13.795 2.38989 13.8315 2.44446C13.868 2.49902 13.8987 2.55664 13.9239 2.61731C13.949 2.67798 13.968 2.74048 13.9808 2.80493C13.9936 2.86926 14 2.93433 14 3L14 13Z" fill-rule="nonzero" fill="currentColor"/>
		<path id="path" d="M8.5 8.99988C8.40173 8.99988 8.30374 9.00476 8.20596 9.0144C8.10815 9.02393 8.01111 9.03833 7.91473 9.0575C7.81836 9.07666 7.72318 9.10059 7.62915 9.12903C7.53513 9.15759 7.44272 9.19067 7.35196 9.22827C7.26117 9.26587 7.17245 9.30786 7.08582 9.35413C6.99915 9.40051 6.91498 9.45093 6.83328 9.50549C6.75159 9.56006 6.67276 9.61853 6.59683 9.68091C6.52087 9.74316 6.44815 9.80908 6.37869 9.87854C6.3092 9.948 6.24329 10.0208 6.18097 10.0967C6.11865 10.1727 6.06018 10.2515 6.00558 10.3333C5.95102 10.4149 5.90054 10.499 5.85425 10.5857C5.80792 10.6724 5.76596 10.7611 5.72836 10.8518C5.69077 10.9426 5.65771 11.035 5.62918 11.129C5.60065 11.223 5.57681 11.3182 5.55765 11.4147C5.53848 11.511 5.52408 11.608 5.51443 11.7058C5.50482 11.8036 5.5 11.9016 5.5 11.9999L6.5 11.9999C6.5 11.9344 6.5032 11.869 6.50964 11.8038C6.51605 11.7386 6.52567 11.674 6.53842 11.6097C6.55121 11.5455 6.56711 11.4821 6.58612 11.4193C6.60513 11.3567 6.62717 11.295 6.65225 11.2345C6.67731 11.1741 6.70529 11.1149 6.73615 11.0571C6.76703 10.9994 6.80066 10.9432 6.83707 10.8888C6.87344 10.8344 6.91241 10.7817 6.95398 10.7311C6.99554 10.6805 7.03946 10.632 7.08578 10.5857C7.13211 10.5394 7.18057 10.4955 7.2312 10.4539C7.28186 10.4124 7.33438 10.3734 7.38885 10.3369C7.44333 10.3005 7.49945 10.267 7.55722 10.2361C7.61496 10.2052 7.6741 10.1772 7.73462 10.1521C7.79514 10.1271 7.85675 10.105 7.91943 10.0861C7.98212 10.067 8.04556 10.0511 8.10983 10.0383C8.17407 10.0255 8.23877 10.016 8.30396 10.0095C8.36914 10.0032 8.43451 9.99988 8.5 9.99988C8.56549 9.99988 8.63086 10.0032 8.69604 10.0095C8.76123 10.016 8.82593 10.0255 8.89017 10.0383C8.95444 10.0511 9.01788 10.067 9.08057 10.0861C9.14325 10.105 9.20486 10.1271 9.26538 10.1521C9.3259 10.1772 9.38501 10.2052 9.44278 10.2361C9.50055 10.267 9.55667 10.3005 9.61115 10.3369C9.66559 10.3734 9.71814 10.4124 9.7688 10.4539C9.81943 10.4955 9.86789 10.5394 9.91422 10.5857C9.96054 10.632 10.0045 10.6805 10.046 10.7311C10.0876 10.7817 10.1266 10.8344 10.1629 10.8888C10.1993 10.9432 10.233 10.9994 10.2639 11.0571C10.2947 11.1149 10.3227 11.1741 10.3477 11.2345C10.3728 11.295 10.3949 11.3567 10.4139 11.4193C10.4329 11.4821 10.4488 11.5455 10.4616 11.6097C10.4743 11.674 10.4839 11.7386 10.4904 11.8038C10.4968 11.869 10.5 11.9344 10.5 11.9999L11.5 11.9999C11.5 11.9016 11.4952 11.8036 11.4856 11.7058C11.4759 11.608 11.4615 11.511 11.4424 11.4147C11.4232 11.3182 11.3994 11.223 11.3708 11.129C11.3423 11.035 11.3092 10.9426 11.2716 10.8518C11.234 10.7611 11.1921 10.6724 11.1458 10.5857C11.0995 10.499 11.049 10.4149 10.9944 10.3331C10.9398 10.2515 10.8813 10.1727 10.819 10.0967C10.7567 10.0208 10.6908 9.948 10.6213 9.87854C10.5518 9.80908 10.4791 9.74316 10.4032 9.68091C10.3272 9.61853 10.2484 9.56006 10.1667 9.50549C10.085 9.45093 10.0009 9.40051 9.91418 9.35413C9.82755 9.30786 9.73883 9.26587 9.64804 9.22827C9.55728 9.19067 9.46487 9.15759 9.37085 9.12903C9.27682 9.10059 9.18164 9.07666 9.08527 9.0575C8.98889 9.03833 8.89185 9.02393 8.79404 9.0144C8.69626 9.00476 8.59827 8.99988 8.5 8.99988ZM8.5 7.99988C8.56555 7.99988 8.63092 7.9967 8.69614 7.99036C8.76138 7.98389 8.82611 7.97437 8.89041 7.96155C8.95468 7.94873 9.01819 7.93286 9.0809 7.91382C9.14362 7.89478 9.20526 7.8728 9.26581 7.84766C9.32639 7.82263 9.38556 7.79468 9.44336 7.76379C9.50116 7.73291 9.55731 7.69922 9.61182 7.66284C9.66629 7.62646 9.71887 7.5874 9.76953 7.5459C9.82019 7.50427 9.86871 7.46033 9.91504 7.41394C9.9614 7.36768 10.0053 7.31909 10.0469 7.26843C10.0885 7.21777 10.1275 7.16516 10.1639 7.11072C10.2003 7.05615 10.2339 7.00012 10.2649 6.94226C10.2957 6.8844 10.3237 6.82532 10.3488 6.76477C10.3739 6.70422 10.3959 6.64258 10.4149 6.57983C10.4339 6.51709 10.4498 6.45361 10.4626 6.38928C10.4754 6.32507 10.485 6.26025 10.4914 6.19507C10.4978 6.12988 10.501 6.06445 10.501 5.9989C10.5009 5.93335 10.4977 5.86804 10.4913 5.80273C10.4848 5.73755 10.4752 5.67273 10.4624 5.60852C10.4496 5.54419 10.4337 5.48071 10.4146 5.41809C10.3956 5.35535 10.3735 5.2937 10.3484 5.23315C10.3233 5.17261 10.2953 5.1134 10.2644 5.05566C10.2335 4.99792 10.1998 4.94177 10.1634 4.88721C10.1269 4.83276 10.0879 4.78027 10.0463 4.72961C10.0047 4.67896 9.96072 4.63049 9.91434 4.58411C9.86798 4.53784 9.81946 4.4939 9.76877 4.45227C9.71808 4.41077 9.6655 4.37183 9.61096 4.33545C9.55646 4.29907 9.50031 4.26538 9.44247 4.23462C9.38464 4.20374 9.32547 4.17578 9.26489 4.15076C9.20432 4.12561 9.14267 4.10364 9.07996 4.08472C9.01721 4.06567 8.9537 4.0498 8.88943 4.03711C8.82513 4.02429 8.76038 4.01477 8.69516 4.00842C8.62991 4.00208 8.56454 3.9989 8.49899 3.9989C8.4335 3.9989 8.36816 4.0022 8.30298 4.00867C8.23779 4.01514 8.1731 4.02478 8.10886 4.0376C8.04465 4.05042 7.9812 4.06641 7.91852 4.08545C7.85587 4.10449 7.79428 4.12659 7.73376 4.15161C7.67328 4.17676 7.61417 4.20471 7.55643 4.23572C7.49866 4.2666 7.44257 4.30029 7.38812 4.33667C7.33371 4.37305 7.28116 4.41211 7.23056 4.45361C7.17996 4.49524 7.1315 4.53918 7.08521 4.58557C7.03891 4.63184 6.995 4.68042 6.95349 4.73096C6.91196 4.78162 6.87302 4.83423 6.83664 4.88867C6.80026 4.94324 6.76666 4.99927 6.73581 5.05713C6.70496 5.11487 6.677 5.17395 6.65198 5.2345C6.62692 5.29504 6.60492 5.35669 6.58591 5.41931C6.56693 5.48206 6.55106 5.54553 6.5383 5.60974C6.52554 5.67395 6.51596 5.73865 6.50955 5.80383C6.50314 5.86902 6.49997 5.93445 6.49997 5.99988C6.5 6.06543 6.50323 6.13074 6.5097 6.19592C6.51614 6.26111 6.52576 6.32593 6.53857 6.39014C6.55136 6.45435 6.56729 6.51782 6.58633 6.58057C6.60535 6.64319 6.62741 6.70483 6.6525 6.76538C6.67758 6.82581 6.70557 6.88501 6.73645 6.94275C6.76733 7.00049 6.80099 7.05664 6.83737 7.11108C6.87378 7.16553 6.91275 7.21814 6.95432 7.2688C6.99588 7.31934 7.03979 7.36792 7.08612 7.41418C7.13242 7.46045 7.18091 7.50439 7.23154 7.54602C7.28217 7.58752 7.33469 7.62646 7.38916 7.66284C7.4436 7.69922 7.49969 7.73291 7.55746 7.76379C7.61523 7.79468 7.67435 7.82263 7.73486 7.84766C7.79535 7.8728 7.85693 7.89478 7.91959 7.91382C7.98227 7.93286 8.04572 7.94873 8.10992 7.96143C8.17416 7.97424 8.23886 7.98389 8.30402 7.99023C8.3692 7.9967 8.43451 7.99988 8.5 7.99988ZM8.5 5.00793C8.56516 5.00781 8.6297 5.01416 8.69363 5.02686C8.75754 5.03955 8.81961 5.05835 8.87982 5.08325C8.94006 5.10815 8.99725 5.13867 9.05145 5.1748C9.10565 5.21106 9.15579 5.2522 9.2019 5.29822C9.24799 5.34424 9.28915 5.39441 9.32535 5.44861C9.36157 5.50269 9.39215 5.55994 9.41711 5.62012C9.44205 5.6803 9.46088 5.74243 9.4736 5.80627C9.48633 5.87024 9.49268 5.93469 9.49268 5.99988C9.49268 6.06506 9.48633 6.12964 9.4736 6.19348C9.46088 6.25745 9.44205 6.31946 9.41711 6.37964C9.39215 6.43994 9.36157 6.49707 9.32535 6.55127C9.28915 6.60547 9.24799 6.65552 9.2019 6.70154C9.15579 6.74768 9.10565 6.78882 9.05145 6.82495C8.99725 6.86108 8.94006 6.89172 8.87982 6.91663C8.81961 6.94153 8.75754 6.96033 8.69363 6.9729C8.6297 6.9856 8.56516 6.99194 8.5 6.99194C8.43491 6.99182 8.37042 6.98547 8.30658 6.97278C8.24271 6.95996 8.18073 6.94116 8.12057 6.91614C8.06046 6.89124 8.00333 6.86072 7.94919 6.82446C7.89508 6.78833 7.845 6.74719 7.79898 6.70105C7.75296 6.65503 7.71188 6.60498 7.67572 6.55078C7.63956 6.4967 7.60904 6.43958 7.58414 6.37939C7.55923 6.31921 7.54044 6.2572 7.52774 6.19336C7.51505 6.12952 7.5087 6.06506 7.5087 5.99988C7.5087 5.93481 7.51505 5.87036 7.52774 5.8064C7.54044 5.74255 7.55923 5.68054 7.58414 5.62048C7.60904 5.5603 7.63956 5.50317 7.67572 5.44897C7.71188 5.3949 7.75296 5.34473 7.79898 5.29871C7.845 5.25269 7.89508 5.21155 7.94919 5.17529C8.00333 5.13916 8.06046 5.10852 8.12057 5.08362C8.18073 5.05872 8.24271 5.03979 8.30658 5.0271C8.37042 5.01428 8.43491 5.00793 8.5 5.00793Z" fill-rule="nonzero" fill="currentColor"/>
	</g>
</svg>
