<svg width="16.000000" height="16.000000" viewBox="0 0 16 16" fill="none" xmlns="http://www.w3.org/2000/svg" xmlns:xlink="http://www.w3.org/1999/xlink">
	<desc>
			Created with Pixso.
	</desc>
	<defs>
		<clipPath id="clip9_2874">
			<rect id="enter" width="16.000000" height="16.000000" fill="currentColor"/>
		</clipPath>
	</defs>
	<g clip-path="url(#clip9_2874)">
		<path id="path" d="M14.0625 6.03149L14.0625 3.03149C14.0625 2.85449 14.0027 2.70605 13.883 2.58594C13.7633 2.46594 13.6175 2.40613 13.4455 2.40649C13.2735 2.40686 13.125 2.46667 13 2.58594C12.875 2.70532 12.8125 2.85388 12.8125 3.03149L12.8125 6.03149C12.8125 6.98987 12.474 7.8075 11.797 8.4845C11.12 9.1615 10.3023 9.5 9.344 9.5L4.0315 9.5L5.797 7.75C5.91167 7.625 5.969 7.47644 5.969 7.30444C5.969 7.13245 5.90917 6.98669 5.7895 6.86694C5.66983 6.74731 5.524 6.6875 5.352 6.6875C5.18 6.6875 5.0315 6.75 4.9065 6.875L2.125 9.65649C2 9.78149 1.9375 9.93005 1.9375 10.1021C1.9375 10.274 2 10.4225 2.125 10.5475L4.9845 13.407C5.1095 13.532 5.258 13.5945 5.43 13.5945C5.602 13.5945 5.7505 13.5347 5.8755 13.415C6.0005 13.2953 6.063 13.1495 6.063 12.9775C6.063 12.8055 6.0005 12.657 5.8755 12.532L4.094 10.7505L9.344 10.7505C10.646 10.7505 11.758 10.2896 12.68 9.36755C13.602 8.44556 14.0625 7.3335 14.0625 6.03149Z" fill-rule="nonzero" fill="currentColor"/>
	</g>
</svg>
