<svg width="24.000000" height="24.000000" viewBox="0 0 24 24" fill="none" xmlns="http://www.w3.org/2000/svg" xmlns:xlink="http://www.w3.org/1999/xlink">
	<desc>
			Created with Pixso.
	</desc>
	<defs>
		<clipPath id="clip8_344">
			<rect id="github" width="24.000000" height="23.999994" fill="white"/>
		</clipPath>
	</defs>
	<g clip-path="url(#clip8_344)">
		<path id="path" d="M12 1C11.8219 0.99823 11.6438 1.00073 11.4658 1.00769C11.2878 1.01459 11.1101 1.02588 10.9326 1.04156C10.7552 1.05719 10.5782 1.07721 10.4019 1.1015C10.2253 1.12585 10.0496 1.15448 9.87451 1.18744C9.69946 1.2204 9.52527 1.25763 9.35205 1.29913C9.17883 1.34064 9.00671 1.38635 8.83582 1.43634C8.66479 1.48627 8.49512 1.54041 8.32678 1.59863C8.15845 1.65692 7.9917 1.7193 7.82642 1.78577C7.66113 1.85223 7.49756 1.92267 7.33582 1.99719C7.17395 2.07166 7.01404 2.15009 6.85608 2.23242C6.69812 2.3147 6.54236 2.40088 6.38855 2.49084C6.23486 2.58081 6.08337 2.6745 5.9342 2.77191C5.78516 2.86932 5.63843 2.97034 5.49426 3.07495C5.3501 3.17957 5.20862 3.28766 5.0697 3.39917C4.93079 3.51074 4.7948 3.62561 4.6615 3.74384C4.52832 3.86212 4.39807 3.98352 4.27075 4.10815C4.14343 4.23273 4.01929 4.36041 3.89832 4.49115C3.77722 4.62183 3.65955 4.75543 3.54504 4.89197C3.43066 5.02844 3.31958 5.16766 3.21191 5.30957C3.10425 5.45154 3.00024 5.59601 2.89966 5.74304C2.79919 5.89014 2.70227 6.03955 2.60901 6.19135C2.51587 6.34314 2.42639 6.49713 2.34082 6.65332C2.25513 6.80951 2.17334 6.96771 2.09546 7.12793C2.01758 7.28809 1.94373 7.45013 1.87378 7.61395C1.80383 7.77777 1.73792 7.94324 1.67615 8.11029C1.61426 8.27734 1.55664 8.4458 1.50305 8.61572C1.44946 8.78558 1.40015 8.95673 1.35498 9.12903C1.30981 9.30133 1.26892 9.47467 1.2323 9.64899C1.19568 9.8233 1.16333 9.99841 1.13525 10.1743C1.10718 10.3502 1.0835 10.5267 1.06409 10.7038C1.04468 10.8809 1.02966 11.0583 1.01892 11.2361C1.0083 11.4139 1.00195 11.5919 1 11.77C1.00134 12.053 1.01392 12.3354 1.03748 12.6174C1.06104 12.8993 1.0957 13.1799 1.14136 13.4591C1.18701 13.7383 1.24365 14.0154 1.31104 14.2902C1.37854 14.5649 1.45667 14.8366 1.54553 15.1053C1.6344 15.3739 1.73364 15.6386 1.84326 15.8995C1.953 16.1603 2.07263 16.4164 2.20251 16.6678C2.33228 16.9192 2.4718 17.1651 2.62097 17.4055C2.77014 17.646 2.92847 17.8802 3.09607 18.1082C3.26367 18.3361 3.43994 18.5572 3.62488 18.7713C3.80981 18.9854 4.00293 19.1919 4.20422 19.3908C4.4054 19.5897 4.61414 19.7805 4.83032 19.963C5.04651 20.1454 5.26965 20.3192 5.49951 20.4841C5.72937 20.649 5.96533 20.8047 6.20752 20.9511C6.44958 21.0975 6.69714 21.2341 6.95007 21.361C7.20288 21.488 7.46033 21.6047 7.72241 21.7114C7.9845 21.8181 8.25037 21.9142 8.52002 22C9.06995 22.1 9.27002 21.77 9.27002 21.48L9.27002 19.65C6.20996 20.3 5.56006 18.21 5.56006 18.21C5.50952 18.0473 5.44495 17.8903 5.36633 17.7392C5.28784 17.588 5.19641 17.4449 5.09229 17.3101C4.98816 17.1753 4.87292 17.0507 4.74658 16.9365C4.62012 16.8222 4.48462 16.72 4.33997 16.63C3.33997 15.97 4.42004 15.98 4.42004 15.98C4.59277 16.0031 4.76086 16.0452 4.92419 16.1064C5.0874 16.1675 5.24182 16.2462 5.38733 16.3423C5.53284 16.4384 5.66565 16.5496 5.78601 16.6758C5.90625 16.8021 6.01099 16.9401 6.09998 17.09C6.13831 17.1565 6.17981 17.2209 6.22437 17.2834C6.26904 17.3458 6.31653 17.4059 6.36694 17.4638C6.41736 17.5216 6.47046 17.5768 6.52625 17.6295C6.58203 17.6822 6.64026 17.7321 6.70093 17.7791C6.7616 17.826 6.82434 17.8701 6.88928 17.9109C6.95422 17.9518 7.021 17.9896 7.08948 18.024C7.15808 18.0584 7.22815 18.0894 7.2998 18.1171C7.37134 18.1447 7.44409 18.1688 7.51807 18.1893C7.59192 18.2099 7.66663 18.2269 7.74231 18.2402C7.81787 18.2534 7.89392 18.2631 7.97034 18.269C8.04688 18.2749 8.12354 18.2771 8.2002 18.2756C8.27686 18.274 8.35339 18.2688 8.42957 18.2598C8.50574 18.2509 8.58142 18.2383 8.65637 18.222C8.73132 18.2057 8.80542 18.1858 8.87842 18.1623C8.95142 18.1388 9.02319 18.1118 9.09363 18.0814C9.16406 18.051 9.23291 18.0172 9.30005 17.98C9.328 17.7062 9.4021 17.4456 9.52246 17.198C9.6427 16.9504 9.802 16.7311 10 16.54C7.56006 16.27 5 15.35 5 11.22C4.99463 10.9532 5.01477 10.6883 5.06042 10.4254C5.10608 10.1624 5.17651 9.90631 5.27161 9.65692C5.36682 9.40759 5.48486 9.16962 5.62585 8.94305C5.76685 8.71649 5.92822 8.50543 6.10999 8.31C6.02722 8.08093 5.96716 7.84607 5.92981 7.60541C5.89246 7.36469 5.87854 7.12268 5.88794 6.87927C5.89734 6.63593 5.92993 6.39569 5.98584 6.15857C6.04175 5.92151 6.11975 5.69202 6.21997 5.47003C6.21997 5.47003 7.15002 5.17999 9.21997 6.57001C9.66858 6.4505 10.1229 6.3606 10.5833 6.30029C11.0436 6.24005 11.5057 6.2099 11.97 6.2099C12.4342 6.2099 12.8965 6.24005 13.3567 6.30029C13.817 6.3606 14.2715 6.4505 14.72 6.57001C16.8199 5.17999 17.72 5.47003 17.72 5.47003C17.8202 5.69202 17.8983 5.92151 17.9541 6.15857C18.01 6.39569 18.0426 6.63593 18.0521 6.87927C18.0615 7.12268 18.0475 7.36469 18.0101 7.60541C17.9728 7.84607 17.9127 8.08093 17.83 8.31C18.016 8.50189 18.1819 8.70972 18.3276 8.93365C18.4734 9.15753 18.5964 9.39331 18.6968 9.64099C18.797 9.88861 18.8726 10.1436 18.9236 10.4058C18.9746 10.6681 19.0001 10.9329 19 11.2C19 15.34 16.42 16.25 14 16.52C14.1324 16.6486 14.2493 16.7902 14.3505 16.9448C14.4515 17.0992 14.5345 17.263 14.5994 17.4359C14.6642 17.6088 14.7094 17.7867 14.7347 17.9696C14.7601 18.1525 14.7653 18.336 14.75 18.52L14.75 21.47C14.75 21.82 14.95 22.1 15.5 21.99C15.7689 21.9037 16.0339 21.8071 16.2953 21.7C16.5565 21.5929 16.8132 21.4758 17.0654 21.3486C17.3175 21.2214 17.5642 21.0845 17.8057 20.9379C18.047 20.7913 18.2822 20.6356 18.5114 20.4705C18.7406 20.3055 18.9629 20.1318 19.1785 19.9493C19.3939 19.7668 19.6021 19.5762 19.8026 19.3774C20.0032 19.1786 20.1956 18.9724 20.38 18.7585C20.5645 18.5446 20.7401 18.3238 20.9072 18.0961C21.0742 17.8685 21.2322 17.6346 21.3809 17.3946C21.5297 17.1545 21.6687 16.9091 21.7982 16.6581C21.9276 16.4071 22.0471 16.1515 22.1565 15.8912C22.2659 15.6308 22.365 15.3666 22.4536 15.0985C22.5424 14.8304 22.6204 14.5593 22.6879 14.285C22.7552 14.0108 22.8119 13.7344 22.8575 13.4557C22.9033 13.1771 22.9381 12.897 22.9618 12.6157C22.9856 12.3343 22.9983 12.0524 23 11.77C22.998 11.5919 22.9917 11.4139 22.9811 11.2361C22.9703 11.0583 22.9553 10.8809 22.9359 10.7038C22.9165 10.5267 22.8928 10.3502 22.8647 10.1743C22.8367 9.99841 22.8043 9.8233 22.7677 9.64899C22.7311 9.47467 22.6902 9.30133 22.645 9.12903C22.5999 8.95673 22.5505 8.78558 22.4969 8.61572C22.4434 8.4458 22.3857 8.27734 22.3239 8.11029C22.2621 7.94324 22.1962 7.77777 22.1262 7.61395C22.0563 7.45013 21.9824 7.28809 21.9045 7.12793C21.8267 6.96771 21.7449 6.80951 21.6592 6.65332C21.5736 6.49713 21.4841 6.34314 21.3909 6.19135C21.2977 6.03955 21.2008 5.89014 21.1003 5.74304C20.9998 5.59601 20.8956 5.45154 20.7881 5.30957C20.6804 5.16766 20.5693 5.02844 20.455 4.89197C20.3405 4.75543 20.2228 4.62183 20.1017 4.49115C19.9807 4.36041 19.8566 4.23273 19.7292 4.10815C19.6019 3.98352 19.4717 3.86212 19.3385 3.74384C19.2052 3.62561 19.0692 3.51074 18.9303 3.39917C18.7914 3.28766 18.6499 3.17957 18.5057 3.07495C18.3616 2.97034 18.2148 2.86932 18.0657 2.77191C17.9166 2.6745 17.7651 2.58081 17.6115 2.49084C17.4576 2.40088 17.3019 2.3147 17.1439 2.23242C16.986 2.15009 16.826 2.07166 16.6642 1.99719C16.5024 1.92267 16.3389 1.85223 16.1736 1.78577C16.0083 1.7193 15.8416 1.65692 15.6732 1.59863C15.5049 1.54041 15.3352 1.48627 15.1642 1.43634C14.9933 1.38635 14.8212 1.34064 14.6479 1.29913C14.4746 1.25763 14.3005 1.2204 14.1255 1.18744C13.9504 1.15448 13.7747 1.12585 13.5981 1.1015C13.4218 1.07721 13.2448 1.05719 13.0674 1.04156C12.8899 1.02588 12.7122 1.01459 12.5342 1.00769C12.3562 1.00073 12.1781 0.99823 12 1Z" fill-rule="nonzero" fill="#BEBEBE"/>
	</g>
</svg>
