<svg width="24.000000" height="24.000000" viewBox="0 0 24 24" fill="none" xmlns="http://www.w3.org/2000/svg" xmlns:xlink="http://www.w3.org/1999/xlink">
	<desc>
			Created with Pixso.
	</desc>
	<defs>
		<clipPath id="clip8_342">
			<rect id="mail" width="24.000000" height="23.999994" fill="white"/>
		</clipPath>
	</defs>
	<g clip-path="url(#clip8_342)">
		<path id="path" d="M20.1248 4.5L3.87524 4.5C2.5658 4.5 1.5 5.565 1.5 6.87451L1.5 17.8755C1.5 19.185 2.5658 20.25 3.87524 20.25L20.1248 20.25C21.4342 20.25 22.5 19.185 22.5 17.8755L22.5 6.87451C22.5 5.565 21.4342 4.5 20.1248 4.5ZM20.1248 18.75L3.87524 18.75C3.39221 18.75 3 18.3577 3 17.8755L3 6.87451C3 6.39227 3.39221 6 3.87524 6L19.9193 6L12.7125 12.558C12.3705 12.8992 11.8156 12.8985 11.4292 12.516L5.70447 7.67023C5.38721 7.40253 4.91394 7.44153 4.64697 7.758C4.37927 8.07373 4.41821 8.547 4.73474 8.81476L10.4137 13.6185C10.8802 14.085 11.493 14.3168 12.1021 14.3168C12.7028 14.3168 13.3005 14.091 13.7467 13.6432L21 7.04401L21 17.8755C21 18.3577 20.6078 18.75 20.1248 18.75Z" fill-rule="nonzero" fill="#BEBEBE"/>
	</g>
</svg>
