<svg width="16.000000" height="16.000000" viewBox="0 0 16 16" fill="none" xmlns="http://www.w3.org/2000/svg" xmlns:xlink="http://www.w3.org/1999/xlink">
	<desc>
			Created with Pixso.
	</desc>
	<defs>
		<clipPath id="clip9_2876">
			<rect id="moon" width="16.000000" height="16.000000" fill="white"/>
		</clipPath>
	</defs>
	<g clip-path="url(#clip9_2876)">
		<path id="path" d="M8.19519 15.9912C6.00604 15.9912 3.94806 15.1389 2.40021 13.5911C0.852295 12.0432 0 9.98535 0 7.79614C0 5.99634 0.578064 4.2981 1.67102 2.88452C2.19971 2.20166 2.82092 1.61694 3.53473 1.13037C4.25909 0.635742 5.04211 0.264893 5.88373 0.0175781C5.92126 0.00634766 5.95966 0.000976562 5.99878 0.000976562C6.03796 0.0012207 6.07629 0.00683594 6.11377 0.0183105C6.15125 0.029541 6.18628 0.0461426 6.21887 0.0678711C6.25153 0.0895996 6.28033 0.115479 6.3053 0.145508C6.33032 0.175781 6.35046 0.20874 6.36572 0.244873C6.38098 0.281006 6.39075 0.318604 6.39496 0.357422C6.39923 0.39624 6.39777 0.435059 6.39062 0.473633C6.38348 0.512207 6.37097 0.548828 6.35303 0.583496C5.83734 1.58862 5.59747 2.54639 5.59747 3.59937C5.59747 7.34668 8.64612 10.3955 12.3935 10.3955C13.4465 10.3955 14.4043 10.1555 15.4093 9.63989C15.4442 9.62183 15.4808 9.60938 15.5193 9.60229C15.5578 9.59521 15.5966 9.59375 15.6355 9.5979C15.6744 9.60229 15.7119 9.61182 15.748 9.6272C15.7841 9.64258 15.8171 9.6626 15.8473 9.6875C15.8774 9.71265 15.9034 9.74146 15.925 9.77393C15.9467 9.80664 15.9633 9.8418 15.9747 9.87915C15.986 9.9165 15.9918 9.95483 15.9919 9.99414C15.9921 10.0332 15.9865 10.0715 15.9754 10.1091C15.7278 10.9507 15.3568 11.7336 14.8624 12.4583C14.376 13.1719 13.7913 13.7932 13.1083 14.3218C12.7595 14.5925 12.3909 14.8325 12.0023 15.0417C11.6136 15.251 11.2103 15.4265 10.7925 15.5688C10.3746 15.7109 9.94788 15.8176 9.51227 15.8889C9.07666 15.96 8.63812 15.9946 8.19678 15.9929L8.19519 15.9912ZM5.25293 1.09204C2.5553 2.24731 0.7995 4.84106 0.7995 7.79614C0.7995 11.8738 4.11755 15.1917 8.19519 15.1917C11.1502 15.1917 13.7439 13.4353 14.8992 10.7383C14.0916 11.0435 13.256 11.1953 12.3927 11.1941C10.3635 11.1941 8.4566 10.4043 7.02228 8.96973C5.58789 7.5354 4.79718 5.62793 4.79718 3.59863C4.79718 2.73755 4.94751 1.91089 5.25293 1.09204Z" fill-rule="nonzero" fill="#000000"/>
	</g>
</svg>
