<svg width="12.000000" height="12.000000" viewBox="0 0 12 12" fill="none" xmlns="http://www.w3.org/2000/svg" xmlns:xlink="http://www.w3.org/1999/xlink">
	<desc>
			Created with Pixso.
	</desc>
	<defs>
		<clipPath id="clip6_15">
			<rect id="search" width="12.000000" height="12.000000" fill="white"/>
		</clipPath>
	</defs>
	<g clip-path="url(#clip6_15)">
		<path id="path" d="M11.781 10.7197L9.45453 8.39398C9.51648 8.3111 9.57593 8.22644 9.63293 8.14008C9.68988 8.05365 9.74426 7.96564 9.79602 7.87604C9.84778 7.78644 9.89685 7.69537 9.94324 7.60284C9.98962 7.51038 10.0332 7.41656 10.074 7.32147C10.1149 7.22638 10.1529 7.13013 10.188 7.03278C10.2231 6.93549 10.2554 6.83716 10.2847 6.73792C10.3141 6.63867 10.3405 6.53864 10.3638 6.43787C10.3873 6.33704 10.4077 6.23566 10.4251 6.13361C10.4425 6.03162 10.4569 5.92914 10.4683 5.82629C10.4796 5.72345 10.4879 5.6203 10.4932 5.51697C10.4985 5.41364 10.5007 5.31018 10.4998 5.20673C10.499 5.10321 10.4951 4.99988 10.4881 4.89661C10.4811 4.79333 10.4711 4.69037 10.4581 4.58771C10.445 4.48505 10.429 4.38287 10.4099 4.28113C10.3907 4.17944 10.3687 4.07837 10.3436 3.97797C10.3185 3.87756 10.2905 3.77802 10.2595 3.67926C10.2286 3.58051 10.1947 3.48273 10.158 3.38599C10.1212 3.28925 10.0817 3.19366 10.0392 3.09924C9.99683 3.00488 9.95172 2.9118 9.90381 2.82007C9.8559 2.72833 9.80536 2.63806 9.75208 2.54932C9.69885 2.46057 9.64307 2.37347 9.58466 2.28802C9.52625 2.20258 9.46539 2.11896 9.4021 2.03711C9.33875 1.95526 9.27307 1.87537 9.20502 1.79736C9.13696 1.71942 9.06665 1.64355 8.99408 1.56976C8.92151 1.49591 8.84686 1.42432 8.77008 1.35492C8.6933 1.28558 8.61456 1.21851 8.53381 1.15375C8.45306 1.08905 8.37048 1.02673 8.28601 0.966919C8.2016 0.907043 8.11548 0.849731 8.02765 0.794983C7.93982 0.740234 7.85046 0.68811 7.75958 0.638672C7.6687 0.589172 7.57642 0.542419 7.48273 0.498413C7.3891 0.454407 7.29419 0.413208 7.19812 0.374817C7.10199 0.336426 7.00482 0.300903 6.90662 0.26825C6.80841 0.235596 6.70935 0.205872 6.60938 0.179077C6.50946 0.152222 6.40875 0.128418 6.30737 0.107605C6.20605 0.086731 6.10413 0.0689087 6.00171 0.0540771C5.89929 0.0393066 5.79651 0.0275269 5.69342 0.0187378C5.59027 0.0100098 5.487 0.0043335 5.38354 0.00170898C5.28009 -0.000915527 5.17664 -0.000488281 5.07318 0.00299072C4.96979 0.00646973 4.86652 0.0130005 4.76349 0.022583C4.66046 0.0321655 4.5578 0.0447998 4.45544 0.0604858C4.35315 0.0761108 4.2514 0.0947876 4.15021 0.116455C4.04907 0.138184 3.94861 0.162781 3.84882 0.19043C3.74908 0.218079 3.65027 0.248596 3.55237 0.282043C3.45441 0.315491 3.35754 0.351868 3.26178 0.391052C3.16602 0.430237 3.07147 0.472229 2.97815 0.517029C2.88489 0.561768 2.79297 0.609314 2.70245 0.659485C2.612 0.709717 2.52307 0.762573 2.43567 0.818054C2.34833 0.873535 2.2627 0.931519 2.17877 0.992065C2.09479 1.05261 2.01276 1.1156 1.93256 1.18097C1.85229 1.2464 1.77411 1.31409 1.69794 1.38409C1.6217 1.4541 1.54761 1.52631 1.47571 1.60071C1.40375 1.67511 1.33411 1.75159 1.26666 1.83014C1.19928 1.90863 1.13422 1.98907 1.07159 2.07141C1.00891 2.15381 0.94873 2.23798 0.891052 2.32385C0.833374 2.40979 0.77832 2.49738 0.725769 2.58655C0.673279 2.67572 0.623474 2.76636 0.576294 2.85852C0.529175 2.95062 0.484802 3.04407 0.443176 3.13885C0.40155 3.23358 0.362793 3.32947 0.326843 3.42651C0.290894 3.52356 0.257874 3.62158 0.227722 3.72058C0.197571 3.81958 0.170349 3.91943 0.146118 4.02002C0.121887 4.12061 0.100586 4.22186 0.0823364 4.32373C0.0640869 4.4256 0.0488892 4.52789 0.0366821 4.63068C0.0244751 4.73346 0.0152588 4.83649 0.00915527 4.93982C0.00305176 5.04309 0 5.14648 0 5.25C0 5.37103 0.00421143 5.49194 0.0125732 5.61273C0.0209351 5.73352 0.0334473 5.85388 0.0501099 5.97375C0.0668335 6.09369 0.0876465 6.21289 0.112549 6.33136C0.137512 6.44983 0.166504 6.56726 0.199585 6.68372C0.232605 6.80017 0.269653 6.91541 0.31073 7.0293C0.351746 7.14319 0.396667 7.25555 0.445435 7.36633C0.494263 7.47711 0.546814 7.58606 0.603149 7.69324C0.659485 7.80042 0.719482 7.90546 0.783081 8.00848C0.84668 8.11151 0.913818 8.21216 0.984375 8.31055C1.05493 8.40894 1.12885 8.5047 1.20605 8.59796C1.28326 8.69122 1.36359 8.78168 1.44702 8.86938C1.53052 8.95709 1.61688 9.04181 1.70624 9.12354C1.79553 9.20526 1.88757 9.28375 1.98236 9.35913C2.07709 9.43445 2.17432 9.50647 2.27411 9.57507C2.37384 9.64374 2.47583 9.7088 2.58002 9.77039C2.68427 9.83197 2.79053 9.88983 2.8988 9.94403C3.00702 9.99829 3.117 10.0487 3.22876 10.0953C3.34045 10.1419 3.45367 10.1846 3.56836 10.2234C3.68304 10.2621 3.79895 10.2969 3.91602 10.3277C4.03314 10.3585 4.15112 10.3851 4.27008 10.4077C4.38904 10.4303 4.50861 10.4488 4.62878 10.4631C4.74902 10.4774 4.86957 10.4876 4.99048 10.4936C5.11139 10.4996 5.23242 10.5013 5.35345 10.499C5.47449 10.4966 5.59528 10.4901 5.71588 10.4793C5.83649 10.4686 5.95654 10.4536 6.07611 10.4346C6.19568 10.4155 6.31439 10.3924 6.43237 10.3651C6.55029 10.3378 6.66718 10.3065 6.78296 10.2712C6.89874 10.2358 7.01318 10.1965 7.12628 10.1533C7.23932 10.11 7.35077 10.0629 7.46057 10.0119C7.57037 9.96094 7.67828 9.90625 7.7843 9.84778C7.89038 9.78937 7.99426 9.72729 8.09595 9.66168C8.19769 9.59607 8.29706 9.52698 8.39398 9.45447L10.719 11.7795C10.7538 11.8144 10.7916 11.8455 10.8326 11.8729C10.8735 11.9004 10.9167 11.9236 10.9622 11.9424C11.0077 11.9614 11.0546 11.9756 11.1029 11.9854C11.1512 11.995 11.2 11.9999 11.2493 11.9999C11.2985 12 11.3474 11.9952 11.3956 11.9857C11.444 11.9761 11.4909 11.962 11.5364 11.9432C11.582 11.9244 11.6252 11.9013 11.6663 11.874C11.7073 11.8467 11.7452 11.8156 11.78 11.7808C11.8149 11.746 11.8461 11.7081 11.8735 11.6672C11.9009 11.6263 11.9241 11.5831 11.9429 11.5375C11.9619 11.4921 11.9761 11.4451 11.9858 11.3969C11.9954 11.3485 12.0003 11.2997 12.0004 11.2505C12.0004 11.2012 11.9956 11.1524 11.986 11.1041C11.9765 11.0557 11.9623 11.0088 11.9435 10.9633C11.9246 10.9177 11.9016 10.8745 11.8742 10.8335C11.8469 10.7925 11.8158 10.7546 11.781 10.7197ZM5.25 8.99927C5.18811 9.00012 5.12616 8.99945 5.06427 8.99725C5.00238 8.99506 4.94061 8.99133 4.87891 8.98608C4.8172 8.98083 4.75568 8.97406 4.69434 8.96576C4.63293 8.95746 4.57184 8.94763 4.51093 8.93634C4.45007 8.92499 4.38953 8.91217 4.32928 8.89783C4.26904 8.88348 4.20917 8.86768 4.14972 8.8504C4.09027 8.83313 4.03125 8.81433 3.97272 8.79413C3.91418 8.77393 3.8562 8.75226 3.79877 8.72919C3.74127 8.70612 3.68445 8.68158 3.62817 8.6557C3.57196 8.62976 3.51636 8.60248 3.46149 8.57385C3.40656 8.54517 3.35242 8.5152 3.29901 8.48383C3.24561 8.45251 3.19299 8.41986 3.14124 8.38593C3.08942 8.35199 3.03851 8.31677 2.98846 8.28027C2.93842 8.24384 2.88934 8.20612 2.84113 8.16724C2.79297 8.12836 2.74579 8.08826 2.69958 8.047C2.65338 8.0058 2.60822 7.96344 2.56415 7.91992C2.52002 7.87646 2.47705 7.83191 2.43518 7.78632C2.39325 7.74072 2.35254 7.69409 2.31299 7.64648C2.27338 7.59888 2.23499 7.55029 2.19781 7.50073C2.16064 7.45123 2.12476 7.40082 2.09009 7.34949C2.05536 7.29822 2.02197 7.24609 1.98993 7.19312C1.95782 7.14014 1.92706 7.08643 1.89764 7.03192C1.86816 6.97748 1.84015 6.9223 1.81342 6.86639C1.78674 6.81055 1.76141 6.75403 1.73755 6.6969C1.71362 6.63977 1.69116 6.58209 1.6701 6.52386C1.64905 6.46564 1.62952 6.40692 1.61133 6.34772C1.5932 6.28845 1.57654 6.22888 1.5614 6.16882C1.5462 6.10876 1.53253 6.0484 1.52032 5.98767C1.50818 5.927 1.4975 5.86603 1.48828 5.80475C1.47913 5.74353 1.4715 5.68207 1.46539 5.62048C1.45923 5.55884 1.45465 5.49713 1.4516 5.43524C1.44849 5.37341 1.44696 5.31152 1.44696 5.24963C1.44696 5.18768 1.44849 5.12579 1.4516 5.06396C1.45465 5.00214 1.45923 4.94037 1.46539 4.87872C1.4715 4.81714 1.47913 4.75568 1.48828 4.69446C1.4975 4.63324 1.50818 4.57227 1.52032 4.51154C1.53253 4.45081 1.5462 4.39044 1.5614 4.33038C1.57654 4.27039 1.5932 4.21075 1.61133 4.15155C1.62952 4.09235 1.64905 4.03363 1.6701 3.97534C1.69116 3.91711 1.71362 3.85944 1.73755 3.80231C1.76141 3.74518 1.78674 3.68866 1.81342 3.63281C1.84015 3.57697 1.86816 3.52179 1.89764 3.46729C1.92706 3.41278 1.95782 3.35907 1.98993 3.30609C2.02197 3.25317 2.05536 3.20105 2.09009 3.14972C2.12476 3.09839 2.16064 3.04797 2.19781 2.99847C2.23499 2.94897 2.27338 2.90039 2.31299 2.85278C2.35254 2.80511 2.39325 2.75848 2.43518 2.71289C2.47705 2.6673 2.52002 2.62274 2.56415 2.57928C2.60822 2.53583 2.65338 2.49347 2.69958 2.45221C2.74579 2.41095 2.79297 2.37091 2.84113 2.33197C2.88934 2.29309 2.93842 2.25543 2.98846 2.21893C3.03851 2.1825 3.08942 2.14728 3.14124 2.11334C3.19299 2.07935 3.24561 2.04675 3.29901 2.01538C3.35242 1.98407 3.40656 1.95404 3.46149 1.92535C3.51636 1.89673 3.57196 1.86945 3.62817 1.84351C3.68445 1.81763 3.74127 1.79315 3.79877 1.77002C3.8562 1.74695 3.91418 1.72528 3.97272 1.70508C4.03125 1.68488 4.09027 1.66614 4.14972 1.6488C4.20917 1.63153 4.26904 1.61572 4.32928 1.60138C4.38953 1.58704 4.45007 1.57422 4.51093 1.56293C4.57184 1.55157 4.63293 1.54175 4.69434 1.53345C4.75568 1.52515 4.8172 1.51837 4.87891 1.51312C4.94061 1.50787 5.00238 1.50415 5.06427 1.50195C5.12616 1.49976 5.18811 1.49908 5.25 1.5C5.3114 1.5 5.37268 1.50146 5.43402 1.50452C5.4953 1.50751 5.55652 1.51202 5.61755 1.51807C5.67865 1.52405 5.7395 1.53156 5.80023 1.54059C5.86096 1.54956 5.92139 1.56006 5.98157 1.57202C6.04181 1.58405 6.10162 1.59747 6.16119 1.61237C6.2207 1.62726 6.27985 1.64362 6.33856 1.66144C6.39728 1.67926 6.45557 1.69855 6.51331 1.71918C6.57111 1.73987 6.62836 1.76196 6.68506 1.78546C6.74176 1.8089 6.79785 1.8338 6.85333 1.86005C6.90881 1.88629 6.96362 1.91388 7.01776 1.94281C7.07184 1.97174 7.12524 2.00195 7.17786 2.03351C7.23053 2.06506 7.28235 2.0979 7.33337 2.13196C7.3844 2.16608 7.43457 2.20142 7.48389 2.23798C7.53314 2.27454 7.58154 2.31226 7.62897 2.3512C7.67639 2.39014 7.7229 2.43018 7.76837 2.47144C7.81384 2.51263 7.85828 2.55493 7.90167 2.59833C7.94507 2.64172 7.98737 2.68616 8.02856 2.73163C8.06976 2.7771 8.10986 2.82355 8.1488 2.87103C8.18774 2.91846 8.22546 2.9668 8.26202 3.01611C8.29858 3.06543 8.33392 3.1156 8.36798 3.16663C8.4021 3.21765 8.43494 3.26947 8.46649 3.32208C8.49805 3.37476 8.52826 3.4281 8.55719 3.48224C8.58612 3.53638 8.61371 3.59119 8.63995 3.64667C8.6662 3.70215 8.69104 3.75824 8.71454 3.81494C8.73804 3.87164 8.76013 3.92889 8.78076 3.98663C8.80145 4.04443 8.82068 4.10266 8.8385 4.16144C8.85632 4.22015 8.87268 4.2793 8.88763 4.33881C8.90253 4.39832 8.91595 4.45819 8.92792 4.51837C8.93994 4.57861 8.95038 4.63904 8.95941 4.69977C8.96844 4.76044 8.97595 4.82135 8.98193 4.88245C8.98798 4.94348 8.99249 5.0047 8.99548 5.06598C8.99847 5.12726 9 5.1886 9 5.25C9 5.31134 8.99847 5.37268 8.99548 5.43402C8.99249 5.4953 8.98798 5.55646 8.98193 5.61755C8.97595 5.67865 8.96844 5.7395 8.95941 5.80023C8.95038 5.86096 8.93994 5.92139 8.92792 5.98157C8.91595 6.04175 8.90253 6.10162 8.88763 6.16113C8.87268 6.2207 8.85632 6.27985 8.8385 6.33856C8.82068 6.39728 8.80145 6.45557 8.78076 6.51331C8.76013 6.57111 8.73804 6.62836 8.71454 6.68506C8.69104 6.74176 8.6662 6.79785 8.63995 6.85333C8.61371 6.90881 8.58612 6.96362 8.55719 7.0177C8.52826 7.07184 8.49805 7.12524 8.46649 7.17786C8.43494 7.23053 8.4021 7.28235 8.36798 7.33337C8.33392 7.3844 8.29858 7.43457 8.26202 7.48389C8.22546 7.53314 8.18774 7.58154 8.1488 7.62897C8.10986 7.67639 8.06976 7.72284 8.02856 7.76831C7.98737 7.81378 7.94507 7.85822 7.90167 7.90161C7.85828 7.94501 7.81384 7.98737 7.76837 8.02856C7.7229 8.06976 7.67639 8.10986 7.62897 8.1488C7.58154 8.18768 7.53314 8.22546 7.48389 8.26202C7.43457 8.29858 7.3844 8.33392 7.33337 8.36798C7.28235 8.4021 7.23053 8.43494 7.17786 8.46649C7.12524 8.49805 7.07184 8.52826 7.01776 8.55719C6.96362 8.58612 6.90881 8.61371 6.85333 8.63995C6.79785 8.6662 6.74176 8.69104 6.68506 8.71454C6.62836 8.73804 6.57111 8.76007 6.51331 8.78076C6.45557 8.80145 6.39728 8.82068 6.33856 8.8385C6.27985 8.85632 6.2207 8.87268 6.16119 8.88757C6.10162 8.90253 6.04181 8.91595 5.98157 8.92792C5.92139 8.93988 5.86096 8.95038 5.80023 8.95941C5.7395 8.96838 5.67865 8.97589 5.61755 8.98193C5.55652 8.98792 5.4953 8.99243 5.43402 8.99548C5.37268 8.99847 5.3114 8.99927 5.25 8.99927Z" fill-rule="nonzero" fill="#BEBEBE"/>
	</g>
</svg>
