<svg width="24.000000" height="24.000000" viewBox="0 0 24 24" fill="none" xmlns="http://www.w3.org/2000/svg" xmlns:xlink="http://www.w3.org/1999/xlink">
	<desc>
			Created with Pixso.
	</desc>
	<defs>
		<clipPath id="clip5_671">
			<rect id="Sun" width="24.000000" height="24.000000" fill="white"/>
		</clipPath>
	</defs>
	<g clip-path="url(#clip5_671)">
		<path id="path" d="M12.0001 18.1188C10.3657 18.1188 8.82916 17.4823 7.67352 16.3267C6.51782 15.171 5.88141 13.6344 5.88141 12.0001C5.88141 10.3657 6.51788 8.82922 7.67352 7.67346C8.82916 6.51782 10.3657 5.88135 12.0001 5.88135C13.6345 5.88135 15.171 6.51782 16.3267 7.67346C17.4824 8.82922 18.1188 10.3657 18.1188 12.0001C18.1188 13.6344 17.4824 15.171 16.3267 16.3267C15.171 17.4823 13.6345 18.1188 12.0001 18.1188ZM12.0001 7.24109C9.37598 7.24109 7.24109 9.37598 7.24109 12.0001C7.24109 14.6241 9.37598 16.759 12.0001 16.759C14.6242 16.759 16.7591 14.6241 16.7591 12.0001C16.7591 9.37598 14.6242 7.24109 12.0001 7.24109ZM3.8418 12.6799L2.48212 12.6799C2.10663 12.6799 1.80225 12.3755 1.80225 12.0001C1.80225 11.6246 2.10663 11.3202 2.48212 11.3202L3.8418 11.3202C4.21729 11.3202 4.52167 11.6246 4.52167 12.0001C4.52167 12.3755 4.21729 12.6799 3.8418 12.6799ZM21.5181 12.6799L20.1583 12.6799C19.7829 12.6799 19.4785 12.3755 19.4785 12.0001C19.4785 11.6246 19.7829 11.3202 20.1583 11.3202L21.5181 11.3202C21.8936 11.3202 22.1979 11.6246 22.1979 12.0001C22.1979 12.3755 21.8936 12.6799 21.5181 12.6799ZM12.0001 22.1979C11.6246 22.1979 11.3203 21.8936 11.3203 21.5181L11.3203 20.1583C11.3203 19.7828 11.6246 19.4785 12.0001 19.4785C12.3755 19.4785 12.6799 19.7828 12.6799 20.1583L12.6799 21.5181C12.6799 21.8936 12.3755 22.1979 12.0001 22.1979ZM12.0001 4.52173C11.6246 4.52173 11.3203 4.21729 11.3203 3.8418L11.3203 2.48206C11.3203 2.10657 11.6246 1.80225 12.0001 1.80225C12.3755 1.80225 12.6799 2.10669 12.6799 2.48206L12.6799 3.8418C12.6799 4.21729 12.3755 4.52173 12.0001 4.52173ZM5.3382 19.4102C5.16418 19.4102 4.99023 19.3438 4.85748 19.2111C4.59198 18.9456 4.59198 18.5151 4.85748 18.2496L5.81891 17.2881C6.08441 17.0226 6.51489 17.0226 6.7804 17.2881C7.0459 17.5536 7.0459 17.9841 6.7804 18.2496L5.81891 19.2111C5.68616 19.3438 5.51215 19.4102 5.3382 19.4102ZM17.8372 6.91113C17.6631 6.91113 17.4892 6.84485 17.3564 6.71204C17.0909 6.44653 17.0909 6.01611 17.3564 5.75061L18.3179 4.78906C18.5834 4.52356 19.0139 4.52356 19.2794 4.78906C19.5449 5.05457 19.5449 5.48511 19.2794 5.75061L18.3179 6.71204C18.1852 6.84473 18.0112 6.91113 17.8372 6.91113ZM18.7986 19.4102C18.6246 19.4102 18.4506 19.3438 18.3179 19.2111L17.3564 18.2496C17.0909 17.9841 17.0909 17.5536 17.3564 17.2881C17.6219 17.0226 18.0524 17.0226 18.3179 17.2881L19.2794 18.2496C19.5449 18.5151 19.5449 18.9456 19.2794 19.2111C19.1466 19.3438 18.9726 19.4102 18.7986 19.4102ZM6.29962 6.91113C6.12567 6.91113 5.95166 6.84473 5.81891 6.71204L4.85742 5.75061C4.59192 5.48511 4.59192 5.05457 4.85742 4.78906C5.12292 4.52368 5.55341 4.52368 5.81891 4.78906L6.7804 5.75061C7.0459 6.01611 7.0459 6.44653 6.7804 6.71204C6.64764 6.84473 6.47363 6.91113 6.29962 6.91113Z" fill-rule="nonzero" fill="#BEBEBE"/>
	</g>
</svg>
