<svg width="18.024780" height="16.000000" viewBox="0 0 18.0248 16" fill="none" xmlns="http://www.w3.org/2000/svg" xmlns:xlink="http://www.w3.org/1999/xlink">
	<desc>
			Created with Pixso.
	</desc>
	<defs>
		<clipPath id="clip6_51">
			<rect id="time" width="18.024759" height="16.000000" fill="white"/>
		</clipPath>
	</defs>
	<g clip-path="url(#clip6_51)">
		<path id="path" d="M9.01233 1.16669C4.76892 1.16669 1.31421 4.23334 1.31421 8C1.31421 11.7667 4.76892 14.8334 9.01233 14.8334C13.2556 14.8334 16.7103 11.7667 16.7103 8C16.7103 4.23334 13.2556 1.16669 9.01233 1.16669ZM9.01233 13.8334C5.40735 13.8334 2.4408 11.2 2.4408 8C2.4408 4.80005 5.40735 2.16669 9.01233 2.16669C12.6172 2.16669 15.5839 4.80005 15.5839 8C15.5839 11.2 12.6172 13.8334 9.01233 13.8334Z" fill-rule="nonzero" fill="#969696"/>
		<path id="path" d="M12.2417 8.86664L9.57556 7.76666L9.57556 4.33331C9.57556 4.06665 9.31262 3.83331 9.01221 3.83331C8.71179 3.83331 8.44897 4.06665 8.44897 4.33331L8.44897 8.06665C8.44897 8.26666 8.56165 8.43329 8.78699 8.53333L11.791 9.79999C11.8662 9.83331 11.9413 9.83331 12.0164 9.83331C12.2417 9.83331 12.4294 9.73334 12.5421 9.53333C12.6548 9.29999 12.5421 9 12.2417 8.86664Z" fill-rule="nonzero" fill="#969696"/>
	</g>
</svg>
