<svg width="18.024780" height="16.000000" viewBox="0 0 18.0248 16" fill="none" xmlns="http://www.w3.org/2000/svg" xmlns:xlink="http://www.w3.org/1999/xlink">
	<desc>
			Created with Pixso.
	</desc>
	<defs>
		<clipPath id="clip6_54">
			<rect id="update" width="18.024759" height="16.000000" fill="currentColor"/>
		</clipPath>
	</defs>
	<g clip-path="url(#clip6_54)">
		<path id="path" d="M9.01245 14.6666C4.88171 14.6666 1.50208 11.6666 1.50208 8C1.50208 7.59998 1.80249 7.33331 2.25305 7.33331C2.70374 7.33331 3.00415 7.59998 3.00415 8C3.00415 10.9333 5.70789 13.3333 9.01245 13.3333C12.3169 13.3333 15.0206 10.9333 15.0206 8C15.0206 5.06665 12.3169 2.66663 9.01245 2.66663C6.98462 2.66663 5.10706 3.53333 4.05554 5.06665C3.75513 5.33331 3.30457 5.39996 3.00415 5.19995C2.62866 5 2.55347 4.59998 2.77881 4.26666C4.13074 2.46667 6.53394 1.33331 9.01245 1.33331C13.1431 1.33331 16.5227 4.33331 16.5227 8C16.5227 11.6666 13.1431 14.6666 9.01245 14.6666ZM9.01245 8.66663C8.56177 8.66663 8.26135 8.39996 8.26135 8L8.26135 4.66663C8.26135 4.26666 8.56177 4 9.01245 4C9.46301 4 9.76343 4.26666 9.76343 4.66663L9.76343 8C9.76343 8.39996 9.46301 8.66663 9.01245 8.66663ZM11.2655 10.6666C11.0402 10.6666 10.89 10.6 10.7397 10.4667L8.48669 8.46667C8.18628 8.19995 8.18628 7.79999 8.48669 7.53333C8.78711 7.26666 9.23767 7.26666 9.53809 7.53333L11.7913 9.53333C12.0917 9.79999 12.0917 10.2 11.7913 10.4667C11.641 10.6 11.4908 10.6666 11.2655 10.6666ZM6.0083 5.33331L3.00415 5.33331C2.55347 5.33331 2.25305 5.06665 2.25305 4.66663L2.25305 2C2.25305 1.59998 2.55347 1.33331 3.00415 1.33331C3.45471 1.33331 3.75513 1.59998 3.75513 2L3.75513 4L6.0083 4C6.45886 4 6.75928 4.26666 6.75928 4.66663C6.75928 5.06665 6.45886 5.33331 6.0083 5.33331Z" fill-rule="nonzero" fill="currentColor"/>
	</g>
</svg>
