<svg width="14.000000" height="14.000000" viewBox="0 0 14 14" fill="none" xmlns="http://www.w3.org/2000/svg" xmlns:xlink="http://www.w3.org/1999/xlink">
	<desc>
			Created with Pixso.
	</desc>
	<defs>
		<clipPath id="clip14_3447">
			<rect id="喇叭" width="14.000000" height="14.000000" fill="white"/>
		</clipPath>
	</defs>
	<g clip-path="url(#clip14_3447)">
		<path id="path" d="M3.11108 4.27783L3.11108 3.88892L1.94458 3.88892C1.29565 3.88892 0.777832 4.41284 0.777832 5.05933L0.777832 8.94092C0.777832 9.59131 1.30005 10.1111 1.94458 10.1111L3.11108 10.1111L3.11108 4.27783ZM3.88892 9.95557L7 12.4446L7 1.55566L3.88892 4.04443L3.88892 9.95557ZM3.11108 9.33325L3.11108 10.1111L6.58813 13.0085C7.24243 13.554 7.77783 13.3054 7.77783 12.4482L7.77783 1.55176C7.77783 0.694336 7.24512 0.443848 6.58813 0.991455L3.11108 3.88892L3.11108 4.66675L2.3335 4.66675C1.90088 4.66675 1.55566 5.01172 1.55566 5.43726L1.55566 8.56274C1.55566 8.98267 1.90381 9.33325 2.3335 9.33325L3.11108 9.33325ZM9.3335 4.07764L12.6333 0.777832L13.1831 1.32788L9.8833 4.62769L9.3335 4.07764ZM9.3335 9.8833L12.6333 13.1831L13.1831 12.6333L9.8833 9.33325L9.3335 9.8833ZM9.3335 6.22217L13.2222 6.22217L13.2222 7L9.3335 7L9.3335 6.22217Z" fill-rule="nonzero" fill="#896EF2"/>
	</g>
</svg>
